%TF.GenerationSoftware,KiCad,Pcbnew,(5.1.8)-1*%
%TF.CreationDate,2021-01-27T01:42:37+07:00*%
%TF.ProjectId,BD_power_supply,42445f70-6f77-4657-925f-737570706c79,1.0*%
%TF.SameCoordinates,Original*%
%TF.FileFunction,Copper,L2,Bot*%
%TF.FilePolarity,Positive*%
%FSLAX46Y46*%
G04 Gerber Fmt 4.6, Leading zero omitted, Abs format (unit mm)*
G04 Created by KiCad (PCBNEW (5.1.8)-1) date 2021-01-27 01:42:37*
%MOMM*%
%LPD*%
G01*
G04 APERTURE LIST*
%TA.AperFunction,ComponentPad*%
%ADD10O,2.000000X1.905000*%
%TD*%
%TA.AperFunction,ComponentPad*%
%ADD11R,2.000000X1.905000*%
%TD*%
%TA.AperFunction,ComponentPad*%
%ADD12O,1.400000X1.400000*%
%TD*%
%TA.AperFunction,ComponentPad*%
%ADD13C,1.400000*%
%TD*%
%TA.AperFunction,ComponentPad*%
%ADD14C,2.600000*%
%TD*%
%TA.AperFunction,ComponentPad*%
%ADD15R,2.600000X2.600000*%
%TD*%
%TA.AperFunction,ComponentPad*%
%ADD16O,1.350000X1.350000*%
%TD*%
%TA.AperFunction,ComponentPad*%
%ADD17R,1.350000X1.350000*%
%TD*%
%TA.AperFunction,ComponentPad*%
%ADD18C,1.800000*%
%TD*%
%TA.AperFunction,ComponentPad*%
%ADD19R,1.800000X1.800000*%
%TD*%
%TA.AperFunction,ComponentPad*%
%ADD20O,2.200000X2.200000*%
%TD*%
%TA.AperFunction,ComponentPad*%
%ADD21R,2.200000X2.200000*%
%TD*%
%TA.AperFunction,ComponentPad*%
%ADD22C,1.200000*%
%TD*%
%TA.AperFunction,ComponentPad*%
%ADD23R,1.200000X1.200000*%
%TD*%
%TA.AperFunction,ComponentPad*%
%ADD24C,1.676400*%
%TD*%
%TA.AperFunction,ComponentPad*%
%ADD25R,2.000000X2.000000*%
%TD*%
%TA.AperFunction,ComponentPad*%
%ADD26C,2.000000*%
%TD*%
%TA.AperFunction,Conductor*%
%ADD27C,0.300000*%
%TD*%
%TA.AperFunction,Conductor*%
%ADD28C,0.254000*%
%TD*%
%TA.AperFunction,Conductor*%
%ADD29C,0.100000*%
%TD*%
G04 APERTURE END LIST*
D10*
%TO.P,U1,3*%
%TO.N,Net-(C2-Pad1)*%
X132080000Y-107950000D03*
%TO.P,U1,2*%
%TO.N,GND*%
X132080000Y-105410000D03*
D11*
%TO.P,U1,1*%
%TO.N,/V_IN*%
X132080000Y-102870000D03*
%TD*%
D12*
%TO.P,R2,2*%
%TO.N,V_out*%
X132080000Y-97028000D03*
D13*
%TO.P,R2,1*%
%TO.N,Net-(D6-Pad2)*%
X127000000Y-97028000D03*
%TD*%
D14*
%TO.P,J3,3*%
%TO.N,Net-(J3-Pad3)*%
X165482000Y-101298000D03*
%TO.P,J3,2*%
%TO.N,GND*%
X160782000Y-104298000D03*
D15*
%TO.P,J3,1*%
%TO.N,/VCC*%
X160782000Y-98298000D03*
%TD*%
D16*
%TO.P,J2,4*%
%TO.N,GND*%
X120110000Y-86074000D03*
%TO.P,J2,3*%
X120110000Y-84074000D03*
%TO.P,J2,2*%
%TO.N,V_out*%
X118110000Y-86074000D03*
D17*
%TO.P,J2,1*%
X118110000Y-84074000D03*
%TD*%
D16*
%TO.P,J1,4*%
%TO.N,GND*%
X165830000Y-86328000D03*
%TO.P,J1,3*%
X165830000Y-84328000D03*
%TO.P,J1,2*%
%TO.N,V_out*%
X163830000Y-86328000D03*
D17*
%TO.P,J1,1*%
X163830000Y-84328000D03*
%TD*%
D18*
%TO.P,D6,2*%
%TO.N,Net-(D6-Pad2)*%
X129032000Y-90678000D03*
D19*
%TO.P,D6,1*%
%TO.N,GND*%
X129032000Y-93218000D03*
%TD*%
D18*
%TO.P,D5,2*%
%TO.N,Net-(D5-Pad2)*%
X149098000Y-90678000D03*
D19*
%TO.P,D5,1*%
%TO.N,GND*%
X149098000Y-93218000D03*
%TD*%
D20*
%TO.P,D4,2*%
%TO.N,GND*%
X153162000Y-99822000D03*
D21*
%TO.P,D4,1*%
X153162000Y-109982000D03*
%TD*%
D20*
%TO.P,D3,2*%
%TO.N,GND*%
X148336000Y-109728000D03*
D21*
%TO.P,D3,1*%
%TO.N,/V_IN*%
X148336000Y-99568000D03*
%TD*%
D20*
%TO.P,D2,2*%
%TO.N,GND*%
X143764000Y-109728000D03*
D21*
%TO.P,D2,1*%
%TO.N,/VCC*%
X143764000Y-99568000D03*
%TD*%
D20*
%TO.P,D1,2*%
%TO.N,/VCC*%
X138684000Y-99568000D03*
D21*
%TO.P,D1,1*%
%TO.N,/V_IN*%
X138684000Y-109728000D03*
%TD*%
D22*
%TO.P,C1,2*%
%TO.N,GND*%
X120142000Y-95250000D03*
D23*
%TO.P,C1,1*%
%TO.N,/V_IN*%
X120142000Y-97250000D03*
%TD*%
D24*
%TO.P,S1,P*%
%TO.N,Net-(C2-Pad1)*%
X138938000Y-91694000D03*
%TO.P,S1,O*%
%TO.N,V_out*%
X141478000Y-91694000D03*
%TO.P,S1,S*%
%TO.N,Net-(S1-PadS)*%
X136398000Y-91694000D03*
%TD*%
D25*
%TO.P,C2,1*%
%TO.N,Net-(C2-Pad1)*%
X122428000Y-107362000D03*
D26*
%TO.P,C2,2*%
%TO.N,GND*%
X122428000Y-102362000D03*
%TD*%
D13*
%TO.P,R1,1*%
%TO.N,Net-(D5-Pad2)*%
X163322000Y-93472000D03*
D12*
%TO.P,R1,2*%
%TO.N,Net-(C2-Pad1)*%
X158242000Y-93472000D03*
%TD*%
D27*
%TO.N,/V_IN*%
X148350801Y-99568000D02*
X148219000Y-99699801D01*
%TO.N,GND*%
X120152002Y-95250000D02*
X120142000Y-95250000D01*
X160782000Y-104298000D02*
X156306000Y-99822000D01*
X156306000Y-99822000D02*
X153162000Y-99822000D01*
X160782000Y-104298000D02*
X155448000Y-109632000D01*
X153512000Y-109632000D02*
X153162000Y-109982000D01*
X155448000Y-109632000D02*
X153512000Y-109632000D01*
X148590000Y-109982000D02*
X148336000Y-109728000D01*
X153162000Y-109982000D02*
X148590000Y-109982000D01*
X148336000Y-109728000D02*
X145542000Y-109728000D01*
X145542000Y-109728000D02*
X143764000Y-109728000D01*
X143764000Y-109728000D02*
X141986000Y-107950000D01*
X141986000Y-107950000D02*
X141986000Y-106680000D01*
X140716000Y-105410000D02*
X132080000Y-105410000D01*
X141986000Y-106680000D02*
X140716000Y-105410000D01*
X132080000Y-105410000D02*
X130048000Y-105410000D01*
X130048000Y-105410000D02*
X127508000Y-102870000D01*
X122936000Y-102870000D02*
X122428000Y-102362000D01*
X127508000Y-102870000D02*
X122936000Y-102870000D01*
X122428000Y-102362000D02*
X120650000Y-102362000D01*
X120650000Y-102362000D02*
X118618000Y-100330000D01*
X118618000Y-100330000D02*
X118618000Y-95504000D01*
X118872000Y-95250000D02*
X120142000Y-95250000D01*
X118618000Y-95504000D02*
X118872000Y-95250000D01*
X120110000Y-84074000D02*
X120110000Y-86074000D01*
X120110000Y-95218000D02*
X120142000Y-95250000D01*
X120110000Y-86074000D02*
X120110000Y-95218000D01*
X120142000Y-95250000D02*
X122174000Y-95250000D01*
X124206000Y-93218000D02*
X129032000Y-93218000D01*
X122174000Y-95250000D02*
X124206000Y-93218000D01*
X153162000Y-99822000D02*
X153162000Y-95758000D01*
X150622000Y-93218000D02*
X149098000Y-93218000D01*
X153162000Y-95758000D02*
X150622000Y-93218000D01*
X165830000Y-84328000D02*
X165830000Y-86328000D01*
X165830000Y-86328000D02*
X165830000Y-96552000D01*
X165830000Y-96552000D02*
X163068000Y-99314000D01*
X163068000Y-102012000D02*
X160782000Y-104298000D01*
X163068000Y-99314000D02*
X163068000Y-102012000D01*
X149098000Y-93218000D02*
X145542000Y-93218000D01*
X145542000Y-93218000D02*
X144018000Y-94742000D01*
X130556000Y-94742000D02*
X129032000Y-93218000D01*
X144018000Y-94742000D02*
X130556000Y-94742000D01*
%TD*%
D28*
%TO.N,GND*%
X122530000Y-88103377D02*
X122526822Y-88133579D01*
X122530000Y-88168212D01*
X122530000Y-88170418D01*
X122532964Y-88200513D01*
X122538702Y-88263043D01*
X122539332Y-88265172D01*
X122539550Y-88267382D01*
X122557788Y-88327503D01*
X122575612Y-88387702D01*
X122576645Y-88389666D01*
X122577290Y-88391792D01*
X122606895Y-88447180D01*
X122636131Y-88502765D01*
X122637529Y-88504491D01*
X122638575Y-88506449D01*
X122678452Y-88555039D01*
X122717937Y-88603811D01*
X122719641Y-88605228D01*
X122721052Y-88606948D01*
X122769699Y-88646872D01*
X122817883Y-88686956D01*
X122819830Y-88688013D01*
X122821550Y-88689425D01*
X122877022Y-88719075D01*
X122932128Y-88749004D01*
X122934247Y-88749662D01*
X122936207Y-88750710D01*
X122996344Y-88768953D01*
X123056284Y-88787573D01*
X123058492Y-88787805D01*
X123060617Y-88788450D01*
X123123150Y-88794609D01*
X123153182Y-88797769D01*
X123155384Y-88797784D01*
X123190000Y-88801193D01*
X123220226Y-88798216D01*
X161255382Y-89051783D01*
X161290000Y-89055193D01*
X161352555Y-89049032D01*
X161415044Y-89043298D01*
X161417173Y-89042668D01*
X161419383Y-89042450D01*
X161479504Y-89024212D01*
X161539703Y-89006388D01*
X161541667Y-89005355D01*
X161543793Y-89004710D01*
X161599181Y-88975105D01*
X161654766Y-88945869D01*
X161656492Y-88944471D01*
X161658450Y-88943425D01*
X161707042Y-88903546D01*
X161755811Y-88864063D01*
X161757228Y-88862359D01*
X161758948Y-88860948D01*
X161798872Y-88812301D01*
X161837225Y-88766198D01*
X161845833Y-88763648D01*
X161867866Y-88752056D01*
X161887214Y-88736388D01*
X161903133Y-88717246D01*
X161915013Y-88695367D01*
X161922395Y-88671590D01*
X161925000Y-88646000D01*
X161925000Y-88572628D01*
X161939573Y-88525716D01*
X161939805Y-88523508D01*
X161940450Y-88521383D01*
X161946608Y-88458858D01*
X161953178Y-88396421D01*
X161950000Y-88361788D01*
X161950000Y-83653000D01*
X162516928Y-83653000D01*
X162516928Y-85003000D01*
X162529188Y-85127482D01*
X162565498Y-85247180D01*
X162624463Y-85357494D01*
X162703815Y-85454185D01*
X162790697Y-85525487D01*
X162669093Y-85707482D01*
X162570342Y-85945887D01*
X162520000Y-86198976D01*
X162520000Y-86457024D01*
X162570342Y-86710113D01*
X162669093Y-86948518D01*
X162812456Y-87163077D01*
X162994923Y-87345544D01*
X163209482Y-87488907D01*
X163447887Y-87587658D01*
X163700976Y-87638000D01*
X163959024Y-87638000D01*
X164212113Y-87587658D01*
X164450518Y-87488907D01*
X164665077Y-87345544D01*
X164836681Y-87173940D01*
X164958773Y-87306303D01*
X165166371Y-87457473D01*
X165399472Y-87565238D01*
X165500600Y-87595910D01*
X165703000Y-87472224D01*
X165703000Y-86455000D01*
X165957000Y-86455000D01*
X165957000Y-87472224D01*
X166159400Y-87595910D01*
X166260528Y-87565238D01*
X166493629Y-87457473D01*
X166701227Y-87306303D01*
X166875344Y-87117537D01*
X167009289Y-86898430D01*
X167097915Y-86657401D01*
X166975085Y-86455000D01*
X165957000Y-86455000D01*
X165703000Y-86455000D01*
X165683000Y-86455000D01*
X165683000Y-86201000D01*
X165703000Y-86201000D01*
X165703000Y-84455000D01*
X165957000Y-84455000D01*
X165957000Y-86201000D01*
X166975085Y-86201000D01*
X167097915Y-85998599D01*
X167009289Y-85757570D01*
X166875344Y-85538463D01*
X166701227Y-85349697D01*
X166671431Y-85328000D01*
X166701227Y-85306303D01*
X166875344Y-85117537D01*
X167009289Y-84898430D01*
X167097915Y-84657401D01*
X166975085Y-84455000D01*
X165957000Y-84455000D01*
X165703000Y-84455000D01*
X165683000Y-84455000D01*
X165683000Y-84201000D01*
X165703000Y-84201000D01*
X165703000Y-83183776D01*
X165957000Y-83183776D01*
X165957000Y-84201000D01*
X166975085Y-84201000D01*
X167097915Y-83998599D01*
X167009289Y-83757570D01*
X166875344Y-83538463D01*
X166701227Y-83349697D01*
X166493629Y-83198527D01*
X166260528Y-83090762D01*
X166159400Y-83060090D01*
X165957000Y-83183776D01*
X165703000Y-83183776D01*
X165500600Y-83060090D01*
X165399472Y-83090762D01*
X165166371Y-83198527D01*
X165033119Y-83295559D01*
X164956185Y-83201815D01*
X164859494Y-83122463D01*
X164749180Y-83063498D01*
X164629482Y-83027188D01*
X164505000Y-83014928D01*
X163155000Y-83014928D01*
X163030518Y-83027188D01*
X162910820Y-83063498D01*
X162800506Y-83122463D01*
X162703815Y-83201815D01*
X162624463Y-83298506D01*
X162565498Y-83408820D01*
X162529188Y-83528518D01*
X162516928Y-83653000D01*
X161950000Y-83653000D01*
X161950000Y-82702000D01*
X167482431Y-82702000D01*
X167331138Y-100705815D01*
X167196775Y-100381434D01*
X166985013Y-100064509D01*
X166715491Y-99794987D01*
X166398566Y-99583225D01*
X166046419Y-99437361D01*
X165672581Y-99363000D01*
X165291419Y-99363000D01*
X164917581Y-99437361D01*
X164565434Y-99583225D01*
X164248509Y-99794987D01*
X163978987Y-100064509D01*
X163767225Y-100381434D01*
X163621361Y-100733581D01*
X163547000Y-101107419D01*
X163547000Y-101488581D01*
X163621361Y-101862419D01*
X163767225Y-102214566D01*
X163978987Y-102531491D01*
X164248509Y-102801013D01*
X164565434Y-103012775D01*
X164917581Y-103158639D01*
X165291419Y-103233000D01*
X165672581Y-103233000D01*
X166046419Y-103158639D01*
X166398566Y-103012775D01*
X166715491Y-102801013D01*
X166985013Y-102531491D01*
X167196775Y-102214566D01*
X167320979Y-101914710D01*
X167239523Y-111608000D01*
X154622022Y-111608000D01*
X154713185Y-111533185D01*
X154792537Y-111436494D01*
X154851502Y-111326180D01*
X154887812Y-111206482D01*
X154900072Y-111082000D01*
X154897000Y-110267750D01*
X154738250Y-110109000D01*
X153289000Y-110109000D01*
X153289000Y-110129000D01*
X153035000Y-110129000D01*
X153035000Y-110109000D01*
X151585750Y-110109000D01*
X151427000Y-110267750D01*
X151423928Y-111082000D01*
X151436188Y-111206482D01*
X151472498Y-111326180D01*
X151531463Y-111436494D01*
X151610815Y-111533185D01*
X151701978Y-111608000D01*
X116484000Y-111608000D01*
X116484000Y-106362000D01*
X120789928Y-106362000D01*
X120789928Y-108362000D01*
X120802188Y-108486482D01*
X120838498Y-108606180D01*
X120897463Y-108716494D01*
X120976815Y-108813185D01*
X121073506Y-108892537D01*
X121183820Y-108951502D01*
X121303518Y-108987812D01*
X121428000Y-109000072D01*
X123428000Y-109000072D01*
X123552482Y-108987812D01*
X123672180Y-108951502D01*
X123782494Y-108892537D01*
X123879185Y-108813185D01*
X123958537Y-108716494D01*
X124017502Y-108606180D01*
X124053812Y-108486482D01*
X124066072Y-108362000D01*
X124066072Y-107950000D01*
X130437319Y-107950000D01*
X130467970Y-108261204D01*
X130558745Y-108560449D01*
X130706155Y-108836235D01*
X130904537Y-109077963D01*
X131146265Y-109276345D01*
X131422051Y-109423755D01*
X131721296Y-109514530D01*
X131954514Y-109537500D01*
X132205486Y-109537500D01*
X132438704Y-109514530D01*
X132737949Y-109423755D01*
X133013735Y-109276345D01*
X133255463Y-109077963D01*
X133453845Y-108836235D01*
X133565148Y-108628000D01*
X136945928Y-108628000D01*
X136945928Y-110828000D01*
X136958188Y-110952482D01*
X136994498Y-111072180D01*
X137053463Y-111182494D01*
X137132815Y-111279185D01*
X137229506Y-111358537D01*
X137339820Y-111417502D01*
X137459518Y-111453812D01*
X137584000Y-111466072D01*
X139784000Y-111466072D01*
X139908482Y-111453812D01*
X140028180Y-111417502D01*
X140138494Y-111358537D01*
X140235185Y-111279185D01*
X140314537Y-111182494D01*
X140373502Y-111072180D01*
X140409812Y-110952482D01*
X140422072Y-110828000D01*
X140422072Y-110124123D01*
X142074821Y-110124123D01*
X142184558Y-110446054D01*
X142354992Y-110740391D01*
X142579573Y-110995822D01*
X142849671Y-111202531D01*
X143154906Y-111352575D01*
X143367878Y-111417175D01*
X143637000Y-111299125D01*
X143637000Y-109855000D01*
X143891000Y-109855000D01*
X143891000Y-111299125D01*
X144160122Y-111417175D01*
X144373094Y-111352575D01*
X144678329Y-111202531D01*
X144948427Y-110995822D01*
X145173008Y-110740391D01*
X145343442Y-110446054D01*
X145453179Y-110124123D01*
X146646821Y-110124123D01*
X146756558Y-110446054D01*
X146926992Y-110740391D01*
X147151573Y-110995822D01*
X147421671Y-111202531D01*
X147726906Y-111352575D01*
X147939878Y-111417175D01*
X148209000Y-111299125D01*
X148209000Y-109855000D01*
X148463000Y-109855000D01*
X148463000Y-111299125D01*
X148732122Y-111417175D01*
X148945094Y-111352575D01*
X149250329Y-111202531D01*
X149520427Y-110995822D01*
X149745008Y-110740391D01*
X149915442Y-110446054D01*
X150025179Y-110124123D01*
X149907600Y-109855000D01*
X148463000Y-109855000D01*
X148209000Y-109855000D01*
X146764400Y-109855000D01*
X146646821Y-110124123D01*
X145453179Y-110124123D01*
X145335600Y-109855000D01*
X143891000Y-109855000D01*
X143637000Y-109855000D01*
X142192400Y-109855000D01*
X142074821Y-110124123D01*
X140422072Y-110124123D01*
X140422072Y-109331877D01*
X142074821Y-109331877D01*
X142192400Y-109601000D01*
X143637000Y-109601000D01*
X143637000Y-108156875D01*
X143891000Y-108156875D01*
X143891000Y-109601000D01*
X145335600Y-109601000D01*
X145453179Y-109331877D01*
X146646821Y-109331877D01*
X146764400Y-109601000D01*
X148209000Y-109601000D01*
X148209000Y-108156875D01*
X148463000Y-108156875D01*
X148463000Y-109601000D01*
X149907600Y-109601000D01*
X150025179Y-109331877D01*
X149915442Y-109009946D01*
X149841356Y-108882000D01*
X151423928Y-108882000D01*
X151427000Y-109696250D01*
X151585750Y-109855000D01*
X153035000Y-109855000D01*
X153035000Y-108405750D01*
X153289000Y-108405750D01*
X153289000Y-109855000D01*
X154738250Y-109855000D01*
X154897000Y-109696250D01*
X154900072Y-108882000D01*
X154887812Y-108757518D01*
X154851502Y-108637820D01*
X154792537Y-108527506D01*
X154713185Y-108430815D01*
X154616494Y-108351463D01*
X154506180Y-108292498D01*
X154386482Y-108256188D01*
X154262000Y-108243928D01*
X153447750Y-108247000D01*
X153289000Y-108405750D01*
X153035000Y-108405750D01*
X152876250Y-108247000D01*
X152062000Y-108243928D01*
X151937518Y-108256188D01*
X151817820Y-108292498D01*
X151707506Y-108351463D01*
X151610815Y-108430815D01*
X151531463Y-108527506D01*
X151472498Y-108637820D01*
X151436188Y-108757518D01*
X151423928Y-108882000D01*
X149841356Y-108882000D01*
X149745008Y-108715609D01*
X149520427Y-108460178D01*
X149250329Y-108253469D01*
X148945094Y-108103425D01*
X148732122Y-108038825D01*
X148463000Y-108156875D01*
X148209000Y-108156875D01*
X147939878Y-108038825D01*
X147726906Y-108103425D01*
X147421671Y-108253469D01*
X147151573Y-108460178D01*
X146926992Y-108715609D01*
X146756558Y-109009946D01*
X146646821Y-109331877D01*
X145453179Y-109331877D01*
X145343442Y-109009946D01*
X145173008Y-108715609D01*
X144948427Y-108460178D01*
X144678329Y-108253469D01*
X144373094Y-108103425D01*
X144160122Y-108038825D01*
X143891000Y-108156875D01*
X143637000Y-108156875D01*
X143367878Y-108038825D01*
X143154906Y-108103425D01*
X142849671Y-108253469D01*
X142579573Y-108460178D01*
X142354992Y-108715609D01*
X142184558Y-109009946D01*
X142074821Y-109331877D01*
X140422072Y-109331877D01*
X140422072Y-108628000D01*
X140409812Y-108503518D01*
X140373502Y-108383820D01*
X140314537Y-108273506D01*
X140235185Y-108176815D01*
X140138494Y-108097463D01*
X140028180Y-108038498D01*
X139908482Y-108002188D01*
X139784000Y-107989928D01*
X137584000Y-107989928D01*
X137459518Y-108002188D01*
X137339820Y-108038498D01*
X137229506Y-108097463D01*
X137132815Y-108176815D01*
X137053463Y-108273506D01*
X136994498Y-108383820D01*
X136958188Y-108503518D01*
X136945928Y-108628000D01*
X133565148Y-108628000D01*
X133601255Y-108560449D01*
X133692030Y-108261204D01*
X133722681Y-107950000D01*
X133692030Y-107638796D01*
X133601255Y-107339551D01*
X133453845Y-107063765D01*
X133255463Y-106822037D01*
X133076101Y-106674837D01*
X133261315Y-106519437D01*
X133455969Y-106276923D01*
X133599571Y-106001094D01*
X133670563Y-105782980D01*
X133604353Y-105647224D01*
X159612381Y-105647224D01*
X159744317Y-105942312D01*
X160085045Y-106113159D01*
X160452557Y-106214250D01*
X160832729Y-106241701D01*
X161210951Y-106194457D01*
X161572690Y-106074333D01*
X161819683Y-105942312D01*
X161951619Y-105647224D01*
X160782000Y-104477605D01*
X159612381Y-105647224D01*
X133604353Y-105647224D01*
X133550594Y-105537000D01*
X132207000Y-105537000D01*
X132207000Y-105557000D01*
X131953000Y-105557000D01*
X131953000Y-105537000D01*
X130609406Y-105537000D01*
X130489437Y-105782980D01*
X130560429Y-106001094D01*
X130704031Y-106276923D01*
X130898685Y-106519437D01*
X131083899Y-106674837D01*
X130904537Y-106822037D01*
X130706155Y-107063765D01*
X130558745Y-107339551D01*
X130467970Y-107638796D01*
X130437319Y-107950000D01*
X124066072Y-107950000D01*
X124066072Y-106362000D01*
X124053812Y-106237518D01*
X124017502Y-106117820D01*
X123958537Y-106007506D01*
X123879185Y-105910815D01*
X123782494Y-105831463D01*
X123672180Y-105772498D01*
X123552482Y-105736188D01*
X123428000Y-105723928D01*
X121428000Y-105723928D01*
X121303518Y-105736188D01*
X121183820Y-105772498D01*
X121073506Y-105831463D01*
X120976815Y-105910815D01*
X120897463Y-106007506D01*
X120838498Y-106117820D01*
X120802188Y-106237518D01*
X120789928Y-106362000D01*
X116484000Y-106362000D01*
X116484000Y-103497413D01*
X121472192Y-103497413D01*
X121567956Y-103761814D01*
X121857571Y-103902704D01*
X122169108Y-103984384D01*
X122490595Y-104003718D01*
X122809675Y-103959961D01*
X123114088Y-103854795D01*
X123288044Y-103761814D01*
X123383808Y-103497413D01*
X122428000Y-102541605D01*
X121472192Y-103497413D01*
X116484000Y-103497413D01*
X116484000Y-102424595D01*
X120786282Y-102424595D01*
X120830039Y-102743675D01*
X120935205Y-103048088D01*
X121028186Y-103222044D01*
X121292587Y-103317808D01*
X122248395Y-102362000D01*
X122607605Y-102362000D01*
X123563413Y-103317808D01*
X123827814Y-103222044D01*
X123968704Y-102932429D01*
X124050384Y-102620892D01*
X124069718Y-102299405D01*
X124025961Y-101980325D01*
X124004257Y-101917500D01*
X130441928Y-101917500D01*
X130441928Y-103822500D01*
X130454188Y-103946982D01*
X130490498Y-104066680D01*
X130549463Y-104176994D01*
X130628815Y-104273685D01*
X130725506Y-104353037D01*
X130817219Y-104402059D01*
X130704031Y-104543077D01*
X130560429Y-104818906D01*
X130489437Y-105037020D01*
X130609406Y-105283000D01*
X131953000Y-105283000D01*
X131953000Y-105263000D01*
X132207000Y-105263000D01*
X132207000Y-105283000D01*
X133550594Y-105283000D01*
X133670563Y-105037020D01*
X133599571Y-104818906D01*
X133455969Y-104543077D01*
X133342781Y-104402059D01*
X133434494Y-104353037D01*
X133439743Y-104348729D01*
X158838299Y-104348729D01*
X158885543Y-104726951D01*
X159005667Y-105088690D01*
X159137688Y-105335683D01*
X159432776Y-105467619D01*
X160602395Y-104298000D01*
X160961605Y-104298000D01*
X162131224Y-105467619D01*
X162426312Y-105335683D01*
X162597159Y-104994955D01*
X162698250Y-104627443D01*
X162725701Y-104247271D01*
X162678457Y-103869049D01*
X162558333Y-103507310D01*
X162426312Y-103260317D01*
X162131224Y-103128381D01*
X160961605Y-104298000D01*
X160602395Y-104298000D01*
X159432776Y-103128381D01*
X159137688Y-103260317D01*
X158966841Y-103601045D01*
X158865750Y-103968557D01*
X158838299Y-104348729D01*
X133439743Y-104348729D01*
X133531185Y-104273685D01*
X133610537Y-104176994D01*
X133669502Y-104066680D01*
X133705812Y-103946982D01*
X133718072Y-103822500D01*
X133718072Y-102948776D01*
X159612381Y-102948776D01*
X160782000Y-104118395D01*
X161951619Y-102948776D01*
X161819683Y-102653688D01*
X161478955Y-102482841D01*
X161111443Y-102381750D01*
X160731271Y-102354299D01*
X160353049Y-102401543D01*
X159991310Y-102521667D01*
X159744317Y-102653688D01*
X159612381Y-102948776D01*
X133718072Y-102948776D01*
X133718072Y-101917500D01*
X133705812Y-101793018D01*
X133669502Y-101673320D01*
X133610537Y-101563006D01*
X133531185Y-101466315D01*
X133434494Y-101386963D01*
X133324180Y-101327998D01*
X133204482Y-101291688D01*
X133080000Y-101279428D01*
X131080000Y-101279428D01*
X130955518Y-101291688D01*
X130835820Y-101327998D01*
X130725506Y-101386963D01*
X130628815Y-101466315D01*
X130549463Y-101563006D01*
X130490498Y-101673320D01*
X130454188Y-101793018D01*
X130441928Y-101917500D01*
X124004257Y-101917500D01*
X123920795Y-101675912D01*
X123827814Y-101501956D01*
X123563413Y-101406192D01*
X122607605Y-102362000D01*
X122248395Y-102362000D01*
X121292587Y-101406192D01*
X121028186Y-101501956D01*
X120887296Y-101791571D01*
X120805616Y-102103108D01*
X120786282Y-102424595D01*
X116484000Y-102424595D01*
X116484000Y-101226587D01*
X121472192Y-101226587D01*
X122428000Y-102182395D01*
X123383808Y-101226587D01*
X123288044Y-100962186D01*
X122998429Y-100821296D01*
X122686892Y-100739616D01*
X122365405Y-100720282D01*
X122046325Y-100764039D01*
X121741912Y-100869205D01*
X121567956Y-100962186D01*
X121472192Y-101226587D01*
X116484000Y-101226587D01*
X116484000Y-99397117D01*
X136949000Y-99397117D01*
X136949000Y-99738883D01*
X137015675Y-100074081D01*
X137146463Y-100389831D01*
X137336337Y-100673998D01*
X137578002Y-100915663D01*
X137862169Y-101105537D01*
X138177919Y-101236325D01*
X138513117Y-101303000D01*
X138854883Y-101303000D01*
X139190081Y-101236325D01*
X139505831Y-101105537D01*
X139789998Y-100915663D01*
X140031663Y-100673998D01*
X140221537Y-100389831D01*
X140352325Y-100074081D01*
X140419000Y-99738883D01*
X140419000Y-99397117D01*
X140352325Y-99061919D01*
X140221537Y-98746169D01*
X140035671Y-98468000D01*
X142025928Y-98468000D01*
X142025928Y-100668000D01*
X142038188Y-100792482D01*
X142074498Y-100912180D01*
X142133463Y-101022494D01*
X142212815Y-101119185D01*
X142309506Y-101198537D01*
X142419820Y-101257502D01*
X142539518Y-101293812D01*
X142664000Y-101306072D01*
X144864000Y-101306072D01*
X144988482Y-101293812D01*
X145108180Y-101257502D01*
X145218494Y-101198537D01*
X145315185Y-101119185D01*
X145394537Y-101022494D01*
X145453502Y-100912180D01*
X145489812Y-100792482D01*
X145502072Y-100668000D01*
X145502072Y-98468000D01*
X146597928Y-98468000D01*
X146597928Y-100668000D01*
X146610188Y-100792482D01*
X146646498Y-100912180D01*
X146705463Y-101022494D01*
X146784815Y-101119185D01*
X146881506Y-101198537D01*
X146991820Y-101257502D01*
X147111518Y-101293812D01*
X147236000Y-101306072D01*
X149436000Y-101306072D01*
X149560482Y-101293812D01*
X149680180Y-101257502D01*
X149790494Y-101198537D01*
X149887185Y-101119185D01*
X149966537Y-101022494D01*
X150025502Y-100912180D01*
X150061812Y-100792482D01*
X150074072Y-100668000D01*
X150074072Y-100218123D01*
X151472821Y-100218123D01*
X151582558Y-100540054D01*
X151752992Y-100834391D01*
X151977573Y-101089822D01*
X152247671Y-101296531D01*
X152552906Y-101446575D01*
X152765878Y-101511175D01*
X153035000Y-101393125D01*
X153035000Y-99949000D01*
X153289000Y-99949000D01*
X153289000Y-101393125D01*
X153558122Y-101511175D01*
X153771094Y-101446575D01*
X154076329Y-101296531D01*
X154346427Y-101089822D01*
X154571008Y-100834391D01*
X154741442Y-100540054D01*
X154851179Y-100218123D01*
X154733600Y-99949000D01*
X153289000Y-99949000D01*
X153035000Y-99949000D01*
X151590400Y-99949000D01*
X151472821Y-100218123D01*
X150074072Y-100218123D01*
X150074072Y-99425877D01*
X151472821Y-99425877D01*
X151590400Y-99695000D01*
X153035000Y-99695000D01*
X153035000Y-98250875D01*
X153289000Y-98250875D01*
X153289000Y-99695000D01*
X154733600Y-99695000D01*
X154851179Y-99425877D01*
X154741442Y-99103946D01*
X154571008Y-98809609D01*
X154346427Y-98554178D01*
X154076329Y-98347469D01*
X153771094Y-98197425D01*
X153558122Y-98132825D01*
X153289000Y-98250875D01*
X153035000Y-98250875D01*
X152765878Y-98132825D01*
X152552906Y-98197425D01*
X152247671Y-98347469D01*
X151977573Y-98554178D01*
X151752992Y-98809609D01*
X151582558Y-99103946D01*
X151472821Y-99425877D01*
X150074072Y-99425877D01*
X150074072Y-98468000D01*
X150061812Y-98343518D01*
X150025502Y-98223820D01*
X149966537Y-98113506D01*
X149887185Y-98016815D01*
X149790494Y-97937463D01*
X149680180Y-97878498D01*
X149560482Y-97842188D01*
X149436000Y-97829928D01*
X147236000Y-97829928D01*
X147111518Y-97842188D01*
X146991820Y-97878498D01*
X146881506Y-97937463D01*
X146784815Y-98016815D01*
X146705463Y-98113506D01*
X146646498Y-98223820D01*
X146610188Y-98343518D01*
X146597928Y-98468000D01*
X145502072Y-98468000D01*
X145489812Y-98343518D01*
X145453502Y-98223820D01*
X145394537Y-98113506D01*
X145315185Y-98016815D01*
X145218494Y-97937463D01*
X145108180Y-97878498D01*
X144988482Y-97842188D01*
X144864000Y-97829928D01*
X142664000Y-97829928D01*
X142539518Y-97842188D01*
X142419820Y-97878498D01*
X142309506Y-97937463D01*
X142212815Y-98016815D01*
X142133463Y-98113506D01*
X142074498Y-98223820D01*
X142038188Y-98343518D01*
X142025928Y-98468000D01*
X140035671Y-98468000D01*
X140031663Y-98462002D01*
X139789998Y-98220337D01*
X139505831Y-98030463D01*
X139190081Y-97899675D01*
X138854883Y-97833000D01*
X138513117Y-97833000D01*
X138177919Y-97899675D01*
X137862169Y-98030463D01*
X137578002Y-98220337D01*
X137336337Y-98462002D01*
X137146463Y-98746169D01*
X137015675Y-99061919D01*
X136949000Y-99397117D01*
X116484000Y-99397117D01*
X116484000Y-95328438D01*
X118903505Y-95328438D01*
X118942605Y-95568549D01*
X119027798Y-95796418D01*
X119068652Y-95872852D01*
X119292234Y-95920158D01*
X119175128Y-96037264D01*
X119233006Y-96095142D01*
X119187506Y-96119463D01*
X119090815Y-96198815D01*
X119011463Y-96295506D01*
X118952498Y-96405820D01*
X118916188Y-96525518D01*
X118903928Y-96650000D01*
X118903928Y-97850000D01*
X118916188Y-97974482D01*
X118952498Y-98094180D01*
X119011463Y-98204494D01*
X119090815Y-98301185D01*
X119187506Y-98380537D01*
X119297820Y-98439502D01*
X119417518Y-98475812D01*
X119542000Y-98488072D01*
X120742000Y-98488072D01*
X120866482Y-98475812D01*
X120986180Y-98439502D01*
X121096494Y-98380537D01*
X121193185Y-98301185D01*
X121272537Y-98204494D01*
X121331502Y-98094180D01*
X121367812Y-97974482D01*
X121380072Y-97850000D01*
X121380072Y-96896514D01*
X125665000Y-96896514D01*
X125665000Y-97159486D01*
X125716304Y-97417405D01*
X125816939Y-97660359D01*
X125963038Y-97879013D01*
X126148987Y-98064962D01*
X126367641Y-98211061D01*
X126610595Y-98311696D01*
X126868514Y-98363000D01*
X127131486Y-98363000D01*
X127389405Y-98311696D01*
X127632359Y-98211061D01*
X127851013Y-98064962D01*
X128036962Y-97879013D01*
X128183061Y-97660359D01*
X128283696Y-97417405D01*
X128335000Y-97159486D01*
X128335000Y-96896514D01*
X130745000Y-96896514D01*
X130745000Y-97159486D01*
X130796304Y-97417405D01*
X130896939Y-97660359D01*
X131043038Y-97879013D01*
X131228987Y-98064962D01*
X131447641Y-98211061D01*
X131690595Y-98311696D01*
X131948514Y-98363000D01*
X132211486Y-98363000D01*
X132469405Y-98311696D01*
X132712359Y-98211061D01*
X132931013Y-98064962D01*
X133116962Y-97879013D01*
X133263061Y-97660359D01*
X133363696Y-97417405D01*
X133415000Y-97159486D01*
X133415000Y-96998000D01*
X158843928Y-96998000D01*
X158843928Y-99598000D01*
X158856188Y-99722482D01*
X158892498Y-99842180D01*
X158951463Y-99952494D01*
X159030815Y-100049185D01*
X159127506Y-100128537D01*
X159237820Y-100187502D01*
X159357518Y-100223812D01*
X159482000Y-100236072D01*
X162082000Y-100236072D01*
X162206482Y-100223812D01*
X162326180Y-100187502D01*
X162436494Y-100128537D01*
X162533185Y-100049185D01*
X162612537Y-99952494D01*
X162671502Y-99842180D01*
X162707812Y-99722482D01*
X162720072Y-99598000D01*
X162720072Y-96998000D01*
X162707812Y-96873518D01*
X162671502Y-96753820D01*
X162612537Y-96643506D01*
X162533185Y-96546815D01*
X162436494Y-96467463D01*
X162326180Y-96408498D01*
X162206482Y-96372188D01*
X162082000Y-96359928D01*
X159482000Y-96359928D01*
X159357518Y-96372188D01*
X159237820Y-96408498D01*
X159127506Y-96467463D01*
X159030815Y-96546815D01*
X158951463Y-96643506D01*
X158892498Y-96753820D01*
X158856188Y-96873518D01*
X158843928Y-96998000D01*
X133415000Y-96998000D01*
X133415000Y-96896514D01*
X133363696Y-96638595D01*
X133263061Y-96395641D01*
X133116962Y-96176987D01*
X132931013Y-95991038D01*
X132712359Y-95844939D01*
X132469405Y-95744304D01*
X132211486Y-95693000D01*
X131948514Y-95693000D01*
X131690595Y-95744304D01*
X131447641Y-95844939D01*
X131228987Y-95991038D01*
X131043038Y-96176987D01*
X130896939Y-96395641D01*
X130796304Y-96638595D01*
X130745000Y-96896514D01*
X128335000Y-96896514D01*
X128283696Y-96638595D01*
X128183061Y-96395641D01*
X128036962Y-96176987D01*
X127851013Y-95991038D01*
X127632359Y-95844939D01*
X127389405Y-95744304D01*
X127131486Y-95693000D01*
X126868514Y-95693000D01*
X126610595Y-95744304D01*
X126367641Y-95844939D01*
X126148987Y-95991038D01*
X125963038Y-96176987D01*
X125816939Y-96395641D01*
X125716304Y-96638595D01*
X125665000Y-96896514D01*
X121380072Y-96896514D01*
X121380072Y-96650000D01*
X121367812Y-96525518D01*
X121331502Y-96405820D01*
X121272537Y-96295506D01*
X121193185Y-96198815D01*
X121096494Y-96119463D01*
X121050994Y-96095142D01*
X121108872Y-96037264D01*
X120991766Y-95920158D01*
X121215348Y-95872852D01*
X121316237Y-95651484D01*
X121372000Y-95414687D01*
X121380495Y-95171562D01*
X121341395Y-94931451D01*
X121256202Y-94703582D01*
X121215348Y-94627148D01*
X120991764Y-94579841D01*
X120321605Y-95250000D01*
X120335748Y-95264143D01*
X120156143Y-95443748D01*
X120142000Y-95429605D01*
X120127858Y-95443748D01*
X119948253Y-95264143D01*
X119962395Y-95250000D01*
X119292236Y-94579841D01*
X119068652Y-94627148D01*
X118967763Y-94848516D01*
X118912000Y-95085313D01*
X118903505Y-95328438D01*
X116484000Y-95328438D01*
X116484000Y-94400236D01*
X119471841Y-94400236D01*
X120142000Y-95070395D01*
X120812159Y-94400236D01*
X120764852Y-94176652D01*
X120636160Y-94118000D01*
X127493928Y-94118000D01*
X127506188Y-94242482D01*
X127542498Y-94362180D01*
X127601463Y-94472494D01*
X127680815Y-94569185D01*
X127777506Y-94648537D01*
X127887820Y-94707502D01*
X128007518Y-94743812D01*
X128132000Y-94756072D01*
X128746250Y-94753000D01*
X128905000Y-94594250D01*
X128905000Y-93345000D01*
X129159000Y-93345000D01*
X129159000Y-94594250D01*
X129317750Y-94753000D01*
X129932000Y-94756072D01*
X130056482Y-94743812D01*
X130176180Y-94707502D01*
X130286494Y-94648537D01*
X130383185Y-94569185D01*
X130462537Y-94472494D01*
X130521502Y-94362180D01*
X130557812Y-94242482D01*
X130570072Y-94118000D01*
X147559928Y-94118000D01*
X147572188Y-94242482D01*
X147608498Y-94362180D01*
X147667463Y-94472494D01*
X147746815Y-94569185D01*
X147843506Y-94648537D01*
X147953820Y-94707502D01*
X148073518Y-94743812D01*
X148198000Y-94756072D01*
X148812250Y-94753000D01*
X148971000Y-94594250D01*
X148971000Y-93345000D01*
X149225000Y-93345000D01*
X149225000Y-94594250D01*
X149383750Y-94753000D01*
X149998000Y-94756072D01*
X150122482Y-94743812D01*
X150242180Y-94707502D01*
X150352494Y-94648537D01*
X150449185Y-94569185D01*
X150528537Y-94472494D01*
X150587502Y-94362180D01*
X150623812Y-94242482D01*
X150636072Y-94118000D01*
X150633000Y-93503750D01*
X150474250Y-93345000D01*
X149225000Y-93345000D01*
X148971000Y-93345000D01*
X147721750Y-93345000D01*
X147563000Y-93503750D01*
X147559928Y-94118000D01*
X130570072Y-94118000D01*
X130567000Y-93503750D01*
X130408250Y-93345000D01*
X129159000Y-93345000D01*
X128905000Y-93345000D01*
X127655750Y-93345000D01*
X127497000Y-93503750D01*
X127493928Y-94118000D01*
X120636160Y-94118000D01*
X120543484Y-94075763D01*
X120306687Y-94020000D01*
X120063562Y-94011505D01*
X119823451Y-94050605D01*
X119595582Y-94135798D01*
X119519148Y-94176652D01*
X119471841Y-94400236D01*
X116484000Y-94400236D01*
X116484000Y-93340514D01*
X156907000Y-93340514D01*
X156907000Y-93603486D01*
X156958304Y-93861405D01*
X157058939Y-94104359D01*
X157205038Y-94323013D01*
X157390987Y-94508962D01*
X157609641Y-94655061D01*
X157852595Y-94755696D01*
X158110514Y-94807000D01*
X158373486Y-94807000D01*
X158631405Y-94755696D01*
X158874359Y-94655061D01*
X159093013Y-94508962D01*
X159278962Y-94323013D01*
X159425061Y-94104359D01*
X159525696Y-93861405D01*
X159577000Y-93603486D01*
X159577000Y-93340514D01*
X161987000Y-93340514D01*
X161987000Y-93603486D01*
X162038304Y-93861405D01*
X162138939Y-94104359D01*
X162285038Y-94323013D01*
X162470987Y-94508962D01*
X162689641Y-94655061D01*
X162932595Y-94755696D01*
X163190514Y-94807000D01*
X163453486Y-94807000D01*
X163711405Y-94755696D01*
X163954359Y-94655061D01*
X164173013Y-94508962D01*
X164358962Y-94323013D01*
X164505061Y-94104359D01*
X164605696Y-93861405D01*
X164657000Y-93603486D01*
X164657000Y-93340514D01*
X164605696Y-93082595D01*
X164505061Y-92839641D01*
X164358962Y-92620987D01*
X164173013Y-92435038D01*
X163954359Y-92288939D01*
X163711405Y-92188304D01*
X163453486Y-92137000D01*
X163190514Y-92137000D01*
X162932595Y-92188304D01*
X162689641Y-92288939D01*
X162470987Y-92435038D01*
X162285038Y-92620987D01*
X162138939Y-92839641D01*
X162038304Y-93082595D01*
X161987000Y-93340514D01*
X159577000Y-93340514D01*
X159525696Y-93082595D01*
X159425061Y-92839641D01*
X159278962Y-92620987D01*
X159093013Y-92435038D01*
X158874359Y-92288939D01*
X158631405Y-92188304D01*
X158373486Y-92137000D01*
X158110514Y-92137000D01*
X157852595Y-92188304D01*
X157609641Y-92288939D01*
X157390987Y-92435038D01*
X157205038Y-92620987D01*
X157058939Y-92839641D01*
X156958304Y-93082595D01*
X156907000Y-93340514D01*
X116484000Y-93340514D01*
X116484000Y-92318000D01*
X127493928Y-92318000D01*
X127497000Y-92932250D01*
X127655750Y-93091000D01*
X128905000Y-93091000D01*
X128905000Y-93071000D01*
X129159000Y-93071000D01*
X129159000Y-93091000D01*
X130408250Y-93091000D01*
X130567000Y-92932250D01*
X130570072Y-92318000D01*
X130557812Y-92193518D01*
X130521502Y-92073820D01*
X130462537Y-91963506D01*
X130383185Y-91866815D01*
X130286494Y-91787463D01*
X130176180Y-91728498D01*
X130157873Y-91722944D01*
X130224312Y-91656505D01*
X130296210Y-91548902D01*
X134924800Y-91548902D01*
X134924800Y-91839098D01*
X134981414Y-92123717D01*
X135092467Y-92391822D01*
X135253691Y-92633110D01*
X135458890Y-92838309D01*
X135700178Y-92999533D01*
X135968283Y-93110586D01*
X136252902Y-93167200D01*
X136543098Y-93167200D01*
X136827717Y-93110586D01*
X137095822Y-92999533D01*
X137337110Y-92838309D01*
X137542309Y-92633110D01*
X137668000Y-92445001D01*
X137793691Y-92633110D01*
X137998890Y-92838309D01*
X138240178Y-92999533D01*
X138508283Y-93110586D01*
X138792902Y-93167200D01*
X139083098Y-93167200D01*
X139367717Y-93110586D01*
X139635822Y-92999533D01*
X139877110Y-92838309D01*
X140082309Y-92633110D01*
X140208000Y-92445001D01*
X140333691Y-92633110D01*
X140538890Y-92838309D01*
X140780178Y-92999533D01*
X141048283Y-93110586D01*
X141332902Y-93167200D01*
X141623098Y-93167200D01*
X141907717Y-93110586D01*
X142175822Y-92999533D01*
X142417110Y-92838309D01*
X142622309Y-92633110D01*
X142783533Y-92391822D01*
X142814111Y-92318000D01*
X147559928Y-92318000D01*
X147563000Y-92932250D01*
X147721750Y-93091000D01*
X148971000Y-93091000D01*
X148971000Y-93071000D01*
X149225000Y-93071000D01*
X149225000Y-93091000D01*
X150474250Y-93091000D01*
X150633000Y-92932250D01*
X150636072Y-92318000D01*
X150623812Y-92193518D01*
X150587502Y-92073820D01*
X150528537Y-91963506D01*
X150449185Y-91866815D01*
X150352494Y-91787463D01*
X150242180Y-91728498D01*
X150223873Y-91722944D01*
X150290312Y-91656505D01*
X150458299Y-91405095D01*
X150574011Y-91125743D01*
X150633000Y-90829184D01*
X150633000Y-90526816D01*
X150574011Y-90230257D01*
X150458299Y-89950905D01*
X150290312Y-89699495D01*
X150076505Y-89485688D01*
X149825095Y-89317701D01*
X149545743Y-89201989D01*
X149249184Y-89143000D01*
X148946816Y-89143000D01*
X148650257Y-89201989D01*
X148370905Y-89317701D01*
X148119495Y-89485688D01*
X147905688Y-89699495D01*
X147737701Y-89950905D01*
X147621989Y-90230257D01*
X147563000Y-90526816D01*
X147563000Y-90829184D01*
X147621989Y-91125743D01*
X147737701Y-91405095D01*
X147905688Y-91656505D01*
X147972127Y-91722944D01*
X147953820Y-91728498D01*
X147843506Y-91787463D01*
X147746815Y-91866815D01*
X147667463Y-91963506D01*
X147608498Y-92073820D01*
X147572188Y-92193518D01*
X147559928Y-92318000D01*
X142814111Y-92318000D01*
X142894586Y-92123717D01*
X142951200Y-91839098D01*
X142951200Y-91548902D01*
X142894586Y-91264283D01*
X142783533Y-90996178D01*
X142622309Y-90754890D01*
X142417110Y-90549691D01*
X142175822Y-90388467D01*
X141907717Y-90277414D01*
X141623098Y-90220800D01*
X141332902Y-90220800D01*
X141048283Y-90277414D01*
X140780178Y-90388467D01*
X140538890Y-90549691D01*
X140333691Y-90754890D01*
X140208000Y-90942999D01*
X140082309Y-90754890D01*
X139877110Y-90549691D01*
X139635822Y-90388467D01*
X139367717Y-90277414D01*
X139083098Y-90220800D01*
X138792902Y-90220800D01*
X138508283Y-90277414D01*
X138240178Y-90388467D01*
X137998890Y-90549691D01*
X137793691Y-90754890D01*
X137668000Y-90942999D01*
X137542309Y-90754890D01*
X137337110Y-90549691D01*
X137095822Y-90388467D01*
X136827717Y-90277414D01*
X136543098Y-90220800D01*
X136252902Y-90220800D01*
X135968283Y-90277414D01*
X135700178Y-90388467D01*
X135458890Y-90549691D01*
X135253691Y-90754890D01*
X135092467Y-90996178D01*
X134981414Y-91264283D01*
X134924800Y-91548902D01*
X130296210Y-91548902D01*
X130392299Y-91405095D01*
X130508011Y-91125743D01*
X130567000Y-90829184D01*
X130567000Y-90526816D01*
X130508011Y-90230257D01*
X130392299Y-89950905D01*
X130224312Y-89699495D01*
X130010505Y-89485688D01*
X129759095Y-89317701D01*
X129479743Y-89201989D01*
X129183184Y-89143000D01*
X128880816Y-89143000D01*
X128584257Y-89201989D01*
X128304905Y-89317701D01*
X128053495Y-89485688D01*
X127839688Y-89699495D01*
X127671701Y-89950905D01*
X127555989Y-90230257D01*
X127497000Y-90526816D01*
X127497000Y-90829184D01*
X127555989Y-91125743D01*
X127671701Y-91405095D01*
X127839688Y-91656505D01*
X127906127Y-91722944D01*
X127887820Y-91728498D01*
X127777506Y-91787463D01*
X127680815Y-91866815D01*
X127601463Y-91963506D01*
X127542498Y-92073820D01*
X127506188Y-92193518D01*
X127493928Y-92318000D01*
X116484000Y-92318000D01*
X116484000Y-83399000D01*
X116796928Y-83399000D01*
X116796928Y-84749000D01*
X116809188Y-84873482D01*
X116845498Y-84993180D01*
X116904463Y-85103494D01*
X116983815Y-85200185D01*
X117070697Y-85271487D01*
X116949093Y-85453482D01*
X116850342Y-85691887D01*
X116800000Y-85944976D01*
X116800000Y-86203024D01*
X116850342Y-86456113D01*
X116949093Y-86694518D01*
X117092456Y-86909077D01*
X117274923Y-87091544D01*
X117489482Y-87234907D01*
X117727887Y-87333658D01*
X117980976Y-87384000D01*
X118239024Y-87384000D01*
X118492113Y-87333658D01*
X118730518Y-87234907D01*
X118945077Y-87091544D01*
X119116681Y-86919940D01*
X119238773Y-87052303D01*
X119446371Y-87203473D01*
X119679472Y-87311238D01*
X119780600Y-87341910D01*
X119983000Y-87218224D01*
X119983000Y-86201000D01*
X120237000Y-86201000D01*
X120237000Y-87218224D01*
X120439400Y-87341910D01*
X120540528Y-87311238D01*
X120773629Y-87203473D01*
X120981227Y-87052303D01*
X121155344Y-86863537D01*
X121289289Y-86644430D01*
X121377915Y-86403401D01*
X121255085Y-86201000D01*
X120237000Y-86201000D01*
X119983000Y-86201000D01*
X119963000Y-86201000D01*
X119963000Y-85947000D01*
X119983000Y-85947000D01*
X119983000Y-84201000D01*
X120237000Y-84201000D01*
X120237000Y-85947000D01*
X121255085Y-85947000D01*
X121377915Y-85744599D01*
X121289289Y-85503570D01*
X121155344Y-85284463D01*
X120981227Y-85095697D01*
X120951431Y-85074000D01*
X120981227Y-85052303D01*
X121155344Y-84863537D01*
X121289289Y-84644430D01*
X121377915Y-84403401D01*
X121255085Y-84201000D01*
X120237000Y-84201000D01*
X119983000Y-84201000D01*
X119963000Y-84201000D01*
X119963000Y-83947000D01*
X119983000Y-83947000D01*
X119983000Y-82929776D01*
X120237000Y-82929776D01*
X120237000Y-83947000D01*
X121255085Y-83947000D01*
X121377915Y-83744599D01*
X121289289Y-83503570D01*
X121155344Y-83284463D01*
X120981227Y-83095697D01*
X120773629Y-82944527D01*
X120540528Y-82836762D01*
X120439400Y-82806090D01*
X120237000Y-82929776D01*
X119983000Y-82929776D01*
X119780600Y-82806090D01*
X119679472Y-82836762D01*
X119446371Y-82944527D01*
X119313119Y-83041559D01*
X119236185Y-82947815D01*
X119139494Y-82868463D01*
X119029180Y-82809498D01*
X118909482Y-82773188D01*
X118785000Y-82760928D01*
X117435000Y-82760928D01*
X117310518Y-82773188D01*
X117190820Y-82809498D01*
X117080506Y-82868463D01*
X116983815Y-82947815D01*
X116904463Y-83044506D01*
X116845498Y-83154820D01*
X116809188Y-83274518D01*
X116796928Y-83399000D01*
X116484000Y-83399000D01*
X116484000Y-82448000D01*
X122530001Y-82448000D01*
X122530000Y-88103377D01*
%TA.AperFunction,Conductor*%
D29*
G36*
X122530000Y-88103377D02*
G01*
X122526822Y-88133579D01*
X122530000Y-88168212D01*
X122530000Y-88170418D01*
X122532964Y-88200513D01*
X122538702Y-88263043D01*
X122539332Y-88265172D01*
X122539550Y-88267382D01*
X122557788Y-88327503D01*
X122575612Y-88387702D01*
X122576645Y-88389666D01*
X122577290Y-88391792D01*
X122606895Y-88447180D01*
X122636131Y-88502765D01*
X122637529Y-88504491D01*
X122638575Y-88506449D01*
X122678452Y-88555039D01*
X122717937Y-88603811D01*
X122719641Y-88605228D01*
X122721052Y-88606948D01*
X122769699Y-88646872D01*
X122817883Y-88686956D01*
X122819830Y-88688013D01*
X122821550Y-88689425D01*
X122877022Y-88719075D01*
X122932128Y-88749004D01*
X122934247Y-88749662D01*
X122936207Y-88750710D01*
X122996344Y-88768953D01*
X123056284Y-88787573D01*
X123058492Y-88787805D01*
X123060617Y-88788450D01*
X123123150Y-88794609D01*
X123153182Y-88797769D01*
X123155384Y-88797784D01*
X123190000Y-88801193D01*
X123220226Y-88798216D01*
X161255382Y-89051783D01*
X161290000Y-89055193D01*
X161352555Y-89049032D01*
X161415044Y-89043298D01*
X161417173Y-89042668D01*
X161419383Y-89042450D01*
X161479504Y-89024212D01*
X161539703Y-89006388D01*
X161541667Y-89005355D01*
X161543793Y-89004710D01*
X161599181Y-88975105D01*
X161654766Y-88945869D01*
X161656492Y-88944471D01*
X161658450Y-88943425D01*
X161707042Y-88903546D01*
X161755811Y-88864063D01*
X161757228Y-88862359D01*
X161758948Y-88860948D01*
X161798872Y-88812301D01*
X161837225Y-88766198D01*
X161845833Y-88763648D01*
X161867866Y-88752056D01*
X161887214Y-88736388D01*
X161903133Y-88717246D01*
X161915013Y-88695367D01*
X161922395Y-88671590D01*
X161925000Y-88646000D01*
X161925000Y-88572628D01*
X161939573Y-88525716D01*
X161939805Y-88523508D01*
X161940450Y-88521383D01*
X161946608Y-88458858D01*
X161953178Y-88396421D01*
X161950000Y-88361788D01*
X161950000Y-83653000D01*
X162516928Y-83653000D01*
X162516928Y-85003000D01*
X162529188Y-85127482D01*
X162565498Y-85247180D01*
X162624463Y-85357494D01*
X162703815Y-85454185D01*
X162790697Y-85525487D01*
X162669093Y-85707482D01*
X162570342Y-85945887D01*
X162520000Y-86198976D01*
X162520000Y-86457024D01*
X162570342Y-86710113D01*
X162669093Y-86948518D01*
X162812456Y-87163077D01*
X162994923Y-87345544D01*
X163209482Y-87488907D01*
X163447887Y-87587658D01*
X163700976Y-87638000D01*
X163959024Y-87638000D01*
X164212113Y-87587658D01*
X164450518Y-87488907D01*
X164665077Y-87345544D01*
X164836681Y-87173940D01*
X164958773Y-87306303D01*
X165166371Y-87457473D01*
X165399472Y-87565238D01*
X165500600Y-87595910D01*
X165703000Y-87472224D01*
X165703000Y-86455000D01*
X165957000Y-86455000D01*
X165957000Y-87472224D01*
X166159400Y-87595910D01*
X166260528Y-87565238D01*
X166493629Y-87457473D01*
X166701227Y-87306303D01*
X166875344Y-87117537D01*
X167009289Y-86898430D01*
X167097915Y-86657401D01*
X166975085Y-86455000D01*
X165957000Y-86455000D01*
X165703000Y-86455000D01*
X165683000Y-86455000D01*
X165683000Y-86201000D01*
X165703000Y-86201000D01*
X165703000Y-84455000D01*
X165957000Y-84455000D01*
X165957000Y-86201000D01*
X166975085Y-86201000D01*
X167097915Y-85998599D01*
X167009289Y-85757570D01*
X166875344Y-85538463D01*
X166701227Y-85349697D01*
X166671431Y-85328000D01*
X166701227Y-85306303D01*
X166875344Y-85117537D01*
X167009289Y-84898430D01*
X167097915Y-84657401D01*
X166975085Y-84455000D01*
X165957000Y-84455000D01*
X165703000Y-84455000D01*
X165683000Y-84455000D01*
X165683000Y-84201000D01*
X165703000Y-84201000D01*
X165703000Y-83183776D01*
X165957000Y-83183776D01*
X165957000Y-84201000D01*
X166975085Y-84201000D01*
X167097915Y-83998599D01*
X167009289Y-83757570D01*
X166875344Y-83538463D01*
X166701227Y-83349697D01*
X166493629Y-83198527D01*
X166260528Y-83090762D01*
X166159400Y-83060090D01*
X165957000Y-83183776D01*
X165703000Y-83183776D01*
X165500600Y-83060090D01*
X165399472Y-83090762D01*
X165166371Y-83198527D01*
X165033119Y-83295559D01*
X164956185Y-83201815D01*
X164859494Y-83122463D01*
X164749180Y-83063498D01*
X164629482Y-83027188D01*
X164505000Y-83014928D01*
X163155000Y-83014928D01*
X163030518Y-83027188D01*
X162910820Y-83063498D01*
X162800506Y-83122463D01*
X162703815Y-83201815D01*
X162624463Y-83298506D01*
X162565498Y-83408820D01*
X162529188Y-83528518D01*
X162516928Y-83653000D01*
X161950000Y-83653000D01*
X161950000Y-82702000D01*
X167482431Y-82702000D01*
X167331138Y-100705815D01*
X167196775Y-100381434D01*
X166985013Y-100064509D01*
X166715491Y-99794987D01*
X166398566Y-99583225D01*
X166046419Y-99437361D01*
X165672581Y-99363000D01*
X165291419Y-99363000D01*
X164917581Y-99437361D01*
X164565434Y-99583225D01*
X164248509Y-99794987D01*
X163978987Y-100064509D01*
X163767225Y-100381434D01*
X163621361Y-100733581D01*
X163547000Y-101107419D01*
X163547000Y-101488581D01*
X163621361Y-101862419D01*
X163767225Y-102214566D01*
X163978987Y-102531491D01*
X164248509Y-102801013D01*
X164565434Y-103012775D01*
X164917581Y-103158639D01*
X165291419Y-103233000D01*
X165672581Y-103233000D01*
X166046419Y-103158639D01*
X166398566Y-103012775D01*
X166715491Y-102801013D01*
X166985013Y-102531491D01*
X167196775Y-102214566D01*
X167320979Y-101914710D01*
X167239523Y-111608000D01*
X154622022Y-111608000D01*
X154713185Y-111533185D01*
X154792537Y-111436494D01*
X154851502Y-111326180D01*
X154887812Y-111206482D01*
X154900072Y-111082000D01*
X154897000Y-110267750D01*
X154738250Y-110109000D01*
X153289000Y-110109000D01*
X153289000Y-110129000D01*
X153035000Y-110129000D01*
X153035000Y-110109000D01*
X151585750Y-110109000D01*
X151427000Y-110267750D01*
X151423928Y-111082000D01*
X151436188Y-111206482D01*
X151472498Y-111326180D01*
X151531463Y-111436494D01*
X151610815Y-111533185D01*
X151701978Y-111608000D01*
X116484000Y-111608000D01*
X116484000Y-106362000D01*
X120789928Y-106362000D01*
X120789928Y-108362000D01*
X120802188Y-108486482D01*
X120838498Y-108606180D01*
X120897463Y-108716494D01*
X120976815Y-108813185D01*
X121073506Y-108892537D01*
X121183820Y-108951502D01*
X121303518Y-108987812D01*
X121428000Y-109000072D01*
X123428000Y-109000072D01*
X123552482Y-108987812D01*
X123672180Y-108951502D01*
X123782494Y-108892537D01*
X123879185Y-108813185D01*
X123958537Y-108716494D01*
X124017502Y-108606180D01*
X124053812Y-108486482D01*
X124066072Y-108362000D01*
X124066072Y-107950000D01*
X130437319Y-107950000D01*
X130467970Y-108261204D01*
X130558745Y-108560449D01*
X130706155Y-108836235D01*
X130904537Y-109077963D01*
X131146265Y-109276345D01*
X131422051Y-109423755D01*
X131721296Y-109514530D01*
X131954514Y-109537500D01*
X132205486Y-109537500D01*
X132438704Y-109514530D01*
X132737949Y-109423755D01*
X133013735Y-109276345D01*
X133255463Y-109077963D01*
X133453845Y-108836235D01*
X133565148Y-108628000D01*
X136945928Y-108628000D01*
X136945928Y-110828000D01*
X136958188Y-110952482D01*
X136994498Y-111072180D01*
X137053463Y-111182494D01*
X137132815Y-111279185D01*
X137229506Y-111358537D01*
X137339820Y-111417502D01*
X137459518Y-111453812D01*
X137584000Y-111466072D01*
X139784000Y-111466072D01*
X139908482Y-111453812D01*
X140028180Y-111417502D01*
X140138494Y-111358537D01*
X140235185Y-111279185D01*
X140314537Y-111182494D01*
X140373502Y-111072180D01*
X140409812Y-110952482D01*
X140422072Y-110828000D01*
X140422072Y-110124123D01*
X142074821Y-110124123D01*
X142184558Y-110446054D01*
X142354992Y-110740391D01*
X142579573Y-110995822D01*
X142849671Y-111202531D01*
X143154906Y-111352575D01*
X143367878Y-111417175D01*
X143637000Y-111299125D01*
X143637000Y-109855000D01*
X143891000Y-109855000D01*
X143891000Y-111299125D01*
X144160122Y-111417175D01*
X144373094Y-111352575D01*
X144678329Y-111202531D01*
X144948427Y-110995822D01*
X145173008Y-110740391D01*
X145343442Y-110446054D01*
X145453179Y-110124123D01*
X146646821Y-110124123D01*
X146756558Y-110446054D01*
X146926992Y-110740391D01*
X147151573Y-110995822D01*
X147421671Y-111202531D01*
X147726906Y-111352575D01*
X147939878Y-111417175D01*
X148209000Y-111299125D01*
X148209000Y-109855000D01*
X148463000Y-109855000D01*
X148463000Y-111299125D01*
X148732122Y-111417175D01*
X148945094Y-111352575D01*
X149250329Y-111202531D01*
X149520427Y-110995822D01*
X149745008Y-110740391D01*
X149915442Y-110446054D01*
X150025179Y-110124123D01*
X149907600Y-109855000D01*
X148463000Y-109855000D01*
X148209000Y-109855000D01*
X146764400Y-109855000D01*
X146646821Y-110124123D01*
X145453179Y-110124123D01*
X145335600Y-109855000D01*
X143891000Y-109855000D01*
X143637000Y-109855000D01*
X142192400Y-109855000D01*
X142074821Y-110124123D01*
X140422072Y-110124123D01*
X140422072Y-109331877D01*
X142074821Y-109331877D01*
X142192400Y-109601000D01*
X143637000Y-109601000D01*
X143637000Y-108156875D01*
X143891000Y-108156875D01*
X143891000Y-109601000D01*
X145335600Y-109601000D01*
X145453179Y-109331877D01*
X146646821Y-109331877D01*
X146764400Y-109601000D01*
X148209000Y-109601000D01*
X148209000Y-108156875D01*
X148463000Y-108156875D01*
X148463000Y-109601000D01*
X149907600Y-109601000D01*
X150025179Y-109331877D01*
X149915442Y-109009946D01*
X149841356Y-108882000D01*
X151423928Y-108882000D01*
X151427000Y-109696250D01*
X151585750Y-109855000D01*
X153035000Y-109855000D01*
X153035000Y-108405750D01*
X153289000Y-108405750D01*
X153289000Y-109855000D01*
X154738250Y-109855000D01*
X154897000Y-109696250D01*
X154900072Y-108882000D01*
X154887812Y-108757518D01*
X154851502Y-108637820D01*
X154792537Y-108527506D01*
X154713185Y-108430815D01*
X154616494Y-108351463D01*
X154506180Y-108292498D01*
X154386482Y-108256188D01*
X154262000Y-108243928D01*
X153447750Y-108247000D01*
X153289000Y-108405750D01*
X153035000Y-108405750D01*
X152876250Y-108247000D01*
X152062000Y-108243928D01*
X151937518Y-108256188D01*
X151817820Y-108292498D01*
X151707506Y-108351463D01*
X151610815Y-108430815D01*
X151531463Y-108527506D01*
X151472498Y-108637820D01*
X151436188Y-108757518D01*
X151423928Y-108882000D01*
X149841356Y-108882000D01*
X149745008Y-108715609D01*
X149520427Y-108460178D01*
X149250329Y-108253469D01*
X148945094Y-108103425D01*
X148732122Y-108038825D01*
X148463000Y-108156875D01*
X148209000Y-108156875D01*
X147939878Y-108038825D01*
X147726906Y-108103425D01*
X147421671Y-108253469D01*
X147151573Y-108460178D01*
X146926992Y-108715609D01*
X146756558Y-109009946D01*
X146646821Y-109331877D01*
X145453179Y-109331877D01*
X145343442Y-109009946D01*
X145173008Y-108715609D01*
X144948427Y-108460178D01*
X144678329Y-108253469D01*
X144373094Y-108103425D01*
X144160122Y-108038825D01*
X143891000Y-108156875D01*
X143637000Y-108156875D01*
X143367878Y-108038825D01*
X143154906Y-108103425D01*
X142849671Y-108253469D01*
X142579573Y-108460178D01*
X142354992Y-108715609D01*
X142184558Y-109009946D01*
X142074821Y-109331877D01*
X140422072Y-109331877D01*
X140422072Y-108628000D01*
X140409812Y-108503518D01*
X140373502Y-108383820D01*
X140314537Y-108273506D01*
X140235185Y-108176815D01*
X140138494Y-108097463D01*
X140028180Y-108038498D01*
X139908482Y-108002188D01*
X139784000Y-107989928D01*
X137584000Y-107989928D01*
X137459518Y-108002188D01*
X137339820Y-108038498D01*
X137229506Y-108097463D01*
X137132815Y-108176815D01*
X137053463Y-108273506D01*
X136994498Y-108383820D01*
X136958188Y-108503518D01*
X136945928Y-108628000D01*
X133565148Y-108628000D01*
X133601255Y-108560449D01*
X133692030Y-108261204D01*
X133722681Y-107950000D01*
X133692030Y-107638796D01*
X133601255Y-107339551D01*
X133453845Y-107063765D01*
X133255463Y-106822037D01*
X133076101Y-106674837D01*
X133261315Y-106519437D01*
X133455969Y-106276923D01*
X133599571Y-106001094D01*
X133670563Y-105782980D01*
X133604353Y-105647224D01*
X159612381Y-105647224D01*
X159744317Y-105942312D01*
X160085045Y-106113159D01*
X160452557Y-106214250D01*
X160832729Y-106241701D01*
X161210951Y-106194457D01*
X161572690Y-106074333D01*
X161819683Y-105942312D01*
X161951619Y-105647224D01*
X160782000Y-104477605D01*
X159612381Y-105647224D01*
X133604353Y-105647224D01*
X133550594Y-105537000D01*
X132207000Y-105537000D01*
X132207000Y-105557000D01*
X131953000Y-105557000D01*
X131953000Y-105537000D01*
X130609406Y-105537000D01*
X130489437Y-105782980D01*
X130560429Y-106001094D01*
X130704031Y-106276923D01*
X130898685Y-106519437D01*
X131083899Y-106674837D01*
X130904537Y-106822037D01*
X130706155Y-107063765D01*
X130558745Y-107339551D01*
X130467970Y-107638796D01*
X130437319Y-107950000D01*
X124066072Y-107950000D01*
X124066072Y-106362000D01*
X124053812Y-106237518D01*
X124017502Y-106117820D01*
X123958537Y-106007506D01*
X123879185Y-105910815D01*
X123782494Y-105831463D01*
X123672180Y-105772498D01*
X123552482Y-105736188D01*
X123428000Y-105723928D01*
X121428000Y-105723928D01*
X121303518Y-105736188D01*
X121183820Y-105772498D01*
X121073506Y-105831463D01*
X120976815Y-105910815D01*
X120897463Y-106007506D01*
X120838498Y-106117820D01*
X120802188Y-106237518D01*
X120789928Y-106362000D01*
X116484000Y-106362000D01*
X116484000Y-103497413D01*
X121472192Y-103497413D01*
X121567956Y-103761814D01*
X121857571Y-103902704D01*
X122169108Y-103984384D01*
X122490595Y-104003718D01*
X122809675Y-103959961D01*
X123114088Y-103854795D01*
X123288044Y-103761814D01*
X123383808Y-103497413D01*
X122428000Y-102541605D01*
X121472192Y-103497413D01*
X116484000Y-103497413D01*
X116484000Y-102424595D01*
X120786282Y-102424595D01*
X120830039Y-102743675D01*
X120935205Y-103048088D01*
X121028186Y-103222044D01*
X121292587Y-103317808D01*
X122248395Y-102362000D01*
X122607605Y-102362000D01*
X123563413Y-103317808D01*
X123827814Y-103222044D01*
X123968704Y-102932429D01*
X124050384Y-102620892D01*
X124069718Y-102299405D01*
X124025961Y-101980325D01*
X124004257Y-101917500D01*
X130441928Y-101917500D01*
X130441928Y-103822500D01*
X130454188Y-103946982D01*
X130490498Y-104066680D01*
X130549463Y-104176994D01*
X130628815Y-104273685D01*
X130725506Y-104353037D01*
X130817219Y-104402059D01*
X130704031Y-104543077D01*
X130560429Y-104818906D01*
X130489437Y-105037020D01*
X130609406Y-105283000D01*
X131953000Y-105283000D01*
X131953000Y-105263000D01*
X132207000Y-105263000D01*
X132207000Y-105283000D01*
X133550594Y-105283000D01*
X133670563Y-105037020D01*
X133599571Y-104818906D01*
X133455969Y-104543077D01*
X133342781Y-104402059D01*
X133434494Y-104353037D01*
X133439743Y-104348729D01*
X158838299Y-104348729D01*
X158885543Y-104726951D01*
X159005667Y-105088690D01*
X159137688Y-105335683D01*
X159432776Y-105467619D01*
X160602395Y-104298000D01*
X160961605Y-104298000D01*
X162131224Y-105467619D01*
X162426312Y-105335683D01*
X162597159Y-104994955D01*
X162698250Y-104627443D01*
X162725701Y-104247271D01*
X162678457Y-103869049D01*
X162558333Y-103507310D01*
X162426312Y-103260317D01*
X162131224Y-103128381D01*
X160961605Y-104298000D01*
X160602395Y-104298000D01*
X159432776Y-103128381D01*
X159137688Y-103260317D01*
X158966841Y-103601045D01*
X158865750Y-103968557D01*
X158838299Y-104348729D01*
X133439743Y-104348729D01*
X133531185Y-104273685D01*
X133610537Y-104176994D01*
X133669502Y-104066680D01*
X133705812Y-103946982D01*
X133718072Y-103822500D01*
X133718072Y-102948776D01*
X159612381Y-102948776D01*
X160782000Y-104118395D01*
X161951619Y-102948776D01*
X161819683Y-102653688D01*
X161478955Y-102482841D01*
X161111443Y-102381750D01*
X160731271Y-102354299D01*
X160353049Y-102401543D01*
X159991310Y-102521667D01*
X159744317Y-102653688D01*
X159612381Y-102948776D01*
X133718072Y-102948776D01*
X133718072Y-101917500D01*
X133705812Y-101793018D01*
X133669502Y-101673320D01*
X133610537Y-101563006D01*
X133531185Y-101466315D01*
X133434494Y-101386963D01*
X133324180Y-101327998D01*
X133204482Y-101291688D01*
X133080000Y-101279428D01*
X131080000Y-101279428D01*
X130955518Y-101291688D01*
X130835820Y-101327998D01*
X130725506Y-101386963D01*
X130628815Y-101466315D01*
X130549463Y-101563006D01*
X130490498Y-101673320D01*
X130454188Y-101793018D01*
X130441928Y-101917500D01*
X124004257Y-101917500D01*
X123920795Y-101675912D01*
X123827814Y-101501956D01*
X123563413Y-101406192D01*
X122607605Y-102362000D01*
X122248395Y-102362000D01*
X121292587Y-101406192D01*
X121028186Y-101501956D01*
X120887296Y-101791571D01*
X120805616Y-102103108D01*
X120786282Y-102424595D01*
X116484000Y-102424595D01*
X116484000Y-101226587D01*
X121472192Y-101226587D01*
X122428000Y-102182395D01*
X123383808Y-101226587D01*
X123288044Y-100962186D01*
X122998429Y-100821296D01*
X122686892Y-100739616D01*
X122365405Y-100720282D01*
X122046325Y-100764039D01*
X121741912Y-100869205D01*
X121567956Y-100962186D01*
X121472192Y-101226587D01*
X116484000Y-101226587D01*
X116484000Y-99397117D01*
X136949000Y-99397117D01*
X136949000Y-99738883D01*
X137015675Y-100074081D01*
X137146463Y-100389831D01*
X137336337Y-100673998D01*
X137578002Y-100915663D01*
X137862169Y-101105537D01*
X138177919Y-101236325D01*
X138513117Y-101303000D01*
X138854883Y-101303000D01*
X139190081Y-101236325D01*
X139505831Y-101105537D01*
X139789998Y-100915663D01*
X140031663Y-100673998D01*
X140221537Y-100389831D01*
X140352325Y-100074081D01*
X140419000Y-99738883D01*
X140419000Y-99397117D01*
X140352325Y-99061919D01*
X140221537Y-98746169D01*
X140035671Y-98468000D01*
X142025928Y-98468000D01*
X142025928Y-100668000D01*
X142038188Y-100792482D01*
X142074498Y-100912180D01*
X142133463Y-101022494D01*
X142212815Y-101119185D01*
X142309506Y-101198537D01*
X142419820Y-101257502D01*
X142539518Y-101293812D01*
X142664000Y-101306072D01*
X144864000Y-101306072D01*
X144988482Y-101293812D01*
X145108180Y-101257502D01*
X145218494Y-101198537D01*
X145315185Y-101119185D01*
X145394537Y-101022494D01*
X145453502Y-100912180D01*
X145489812Y-100792482D01*
X145502072Y-100668000D01*
X145502072Y-98468000D01*
X146597928Y-98468000D01*
X146597928Y-100668000D01*
X146610188Y-100792482D01*
X146646498Y-100912180D01*
X146705463Y-101022494D01*
X146784815Y-101119185D01*
X146881506Y-101198537D01*
X146991820Y-101257502D01*
X147111518Y-101293812D01*
X147236000Y-101306072D01*
X149436000Y-101306072D01*
X149560482Y-101293812D01*
X149680180Y-101257502D01*
X149790494Y-101198537D01*
X149887185Y-101119185D01*
X149966537Y-101022494D01*
X150025502Y-100912180D01*
X150061812Y-100792482D01*
X150074072Y-100668000D01*
X150074072Y-100218123D01*
X151472821Y-100218123D01*
X151582558Y-100540054D01*
X151752992Y-100834391D01*
X151977573Y-101089822D01*
X152247671Y-101296531D01*
X152552906Y-101446575D01*
X152765878Y-101511175D01*
X153035000Y-101393125D01*
X153035000Y-99949000D01*
X153289000Y-99949000D01*
X153289000Y-101393125D01*
X153558122Y-101511175D01*
X153771094Y-101446575D01*
X154076329Y-101296531D01*
X154346427Y-101089822D01*
X154571008Y-100834391D01*
X154741442Y-100540054D01*
X154851179Y-100218123D01*
X154733600Y-99949000D01*
X153289000Y-99949000D01*
X153035000Y-99949000D01*
X151590400Y-99949000D01*
X151472821Y-100218123D01*
X150074072Y-100218123D01*
X150074072Y-99425877D01*
X151472821Y-99425877D01*
X151590400Y-99695000D01*
X153035000Y-99695000D01*
X153035000Y-98250875D01*
X153289000Y-98250875D01*
X153289000Y-99695000D01*
X154733600Y-99695000D01*
X154851179Y-99425877D01*
X154741442Y-99103946D01*
X154571008Y-98809609D01*
X154346427Y-98554178D01*
X154076329Y-98347469D01*
X153771094Y-98197425D01*
X153558122Y-98132825D01*
X153289000Y-98250875D01*
X153035000Y-98250875D01*
X152765878Y-98132825D01*
X152552906Y-98197425D01*
X152247671Y-98347469D01*
X151977573Y-98554178D01*
X151752992Y-98809609D01*
X151582558Y-99103946D01*
X151472821Y-99425877D01*
X150074072Y-99425877D01*
X150074072Y-98468000D01*
X150061812Y-98343518D01*
X150025502Y-98223820D01*
X149966537Y-98113506D01*
X149887185Y-98016815D01*
X149790494Y-97937463D01*
X149680180Y-97878498D01*
X149560482Y-97842188D01*
X149436000Y-97829928D01*
X147236000Y-97829928D01*
X147111518Y-97842188D01*
X146991820Y-97878498D01*
X146881506Y-97937463D01*
X146784815Y-98016815D01*
X146705463Y-98113506D01*
X146646498Y-98223820D01*
X146610188Y-98343518D01*
X146597928Y-98468000D01*
X145502072Y-98468000D01*
X145489812Y-98343518D01*
X145453502Y-98223820D01*
X145394537Y-98113506D01*
X145315185Y-98016815D01*
X145218494Y-97937463D01*
X145108180Y-97878498D01*
X144988482Y-97842188D01*
X144864000Y-97829928D01*
X142664000Y-97829928D01*
X142539518Y-97842188D01*
X142419820Y-97878498D01*
X142309506Y-97937463D01*
X142212815Y-98016815D01*
X142133463Y-98113506D01*
X142074498Y-98223820D01*
X142038188Y-98343518D01*
X142025928Y-98468000D01*
X140035671Y-98468000D01*
X140031663Y-98462002D01*
X139789998Y-98220337D01*
X139505831Y-98030463D01*
X139190081Y-97899675D01*
X138854883Y-97833000D01*
X138513117Y-97833000D01*
X138177919Y-97899675D01*
X137862169Y-98030463D01*
X137578002Y-98220337D01*
X137336337Y-98462002D01*
X137146463Y-98746169D01*
X137015675Y-99061919D01*
X136949000Y-99397117D01*
X116484000Y-99397117D01*
X116484000Y-95328438D01*
X118903505Y-95328438D01*
X118942605Y-95568549D01*
X119027798Y-95796418D01*
X119068652Y-95872852D01*
X119292234Y-95920158D01*
X119175128Y-96037264D01*
X119233006Y-96095142D01*
X119187506Y-96119463D01*
X119090815Y-96198815D01*
X119011463Y-96295506D01*
X118952498Y-96405820D01*
X118916188Y-96525518D01*
X118903928Y-96650000D01*
X118903928Y-97850000D01*
X118916188Y-97974482D01*
X118952498Y-98094180D01*
X119011463Y-98204494D01*
X119090815Y-98301185D01*
X119187506Y-98380537D01*
X119297820Y-98439502D01*
X119417518Y-98475812D01*
X119542000Y-98488072D01*
X120742000Y-98488072D01*
X120866482Y-98475812D01*
X120986180Y-98439502D01*
X121096494Y-98380537D01*
X121193185Y-98301185D01*
X121272537Y-98204494D01*
X121331502Y-98094180D01*
X121367812Y-97974482D01*
X121380072Y-97850000D01*
X121380072Y-96896514D01*
X125665000Y-96896514D01*
X125665000Y-97159486D01*
X125716304Y-97417405D01*
X125816939Y-97660359D01*
X125963038Y-97879013D01*
X126148987Y-98064962D01*
X126367641Y-98211061D01*
X126610595Y-98311696D01*
X126868514Y-98363000D01*
X127131486Y-98363000D01*
X127389405Y-98311696D01*
X127632359Y-98211061D01*
X127851013Y-98064962D01*
X128036962Y-97879013D01*
X128183061Y-97660359D01*
X128283696Y-97417405D01*
X128335000Y-97159486D01*
X128335000Y-96896514D01*
X130745000Y-96896514D01*
X130745000Y-97159486D01*
X130796304Y-97417405D01*
X130896939Y-97660359D01*
X131043038Y-97879013D01*
X131228987Y-98064962D01*
X131447641Y-98211061D01*
X131690595Y-98311696D01*
X131948514Y-98363000D01*
X132211486Y-98363000D01*
X132469405Y-98311696D01*
X132712359Y-98211061D01*
X132931013Y-98064962D01*
X133116962Y-97879013D01*
X133263061Y-97660359D01*
X133363696Y-97417405D01*
X133415000Y-97159486D01*
X133415000Y-96998000D01*
X158843928Y-96998000D01*
X158843928Y-99598000D01*
X158856188Y-99722482D01*
X158892498Y-99842180D01*
X158951463Y-99952494D01*
X159030815Y-100049185D01*
X159127506Y-100128537D01*
X159237820Y-100187502D01*
X159357518Y-100223812D01*
X159482000Y-100236072D01*
X162082000Y-100236072D01*
X162206482Y-100223812D01*
X162326180Y-100187502D01*
X162436494Y-100128537D01*
X162533185Y-100049185D01*
X162612537Y-99952494D01*
X162671502Y-99842180D01*
X162707812Y-99722482D01*
X162720072Y-99598000D01*
X162720072Y-96998000D01*
X162707812Y-96873518D01*
X162671502Y-96753820D01*
X162612537Y-96643506D01*
X162533185Y-96546815D01*
X162436494Y-96467463D01*
X162326180Y-96408498D01*
X162206482Y-96372188D01*
X162082000Y-96359928D01*
X159482000Y-96359928D01*
X159357518Y-96372188D01*
X159237820Y-96408498D01*
X159127506Y-96467463D01*
X159030815Y-96546815D01*
X158951463Y-96643506D01*
X158892498Y-96753820D01*
X158856188Y-96873518D01*
X158843928Y-96998000D01*
X133415000Y-96998000D01*
X133415000Y-96896514D01*
X133363696Y-96638595D01*
X133263061Y-96395641D01*
X133116962Y-96176987D01*
X132931013Y-95991038D01*
X132712359Y-95844939D01*
X132469405Y-95744304D01*
X132211486Y-95693000D01*
X131948514Y-95693000D01*
X131690595Y-95744304D01*
X131447641Y-95844939D01*
X131228987Y-95991038D01*
X131043038Y-96176987D01*
X130896939Y-96395641D01*
X130796304Y-96638595D01*
X130745000Y-96896514D01*
X128335000Y-96896514D01*
X128283696Y-96638595D01*
X128183061Y-96395641D01*
X128036962Y-96176987D01*
X127851013Y-95991038D01*
X127632359Y-95844939D01*
X127389405Y-95744304D01*
X127131486Y-95693000D01*
X126868514Y-95693000D01*
X126610595Y-95744304D01*
X126367641Y-95844939D01*
X126148987Y-95991038D01*
X125963038Y-96176987D01*
X125816939Y-96395641D01*
X125716304Y-96638595D01*
X125665000Y-96896514D01*
X121380072Y-96896514D01*
X121380072Y-96650000D01*
X121367812Y-96525518D01*
X121331502Y-96405820D01*
X121272537Y-96295506D01*
X121193185Y-96198815D01*
X121096494Y-96119463D01*
X121050994Y-96095142D01*
X121108872Y-96037264D01*
X120991766Y-95920158D01*
X121215348Y-95872852D01*
X121316237Y-95651484D01*
X121372000Y-95414687D01*
X121380495Y-95171562D01*
X121341395Y-94931451D01*
X121256202Y-94703582D01*
X121215348Y-94627148D01*
X120991764Y-94579841D01*
X120321605Y-95250000D01*
X120335748Y-95264143D01*
X120156143Y-95443748D01*
X120142000Y-95429605D01*
X120127858Y-95443748D01*
X119948253Y-95264143D01*
X119962395Y-95250000D01*
X119292236Y-94579841D01*
X119068652Y-94627148D01*
X118967763Y-94848516D01*
X118912000Y-95085313D01*
X118903505Y-95328438D01*
X116484000Y-95328438D01*
X116484000Y-94400236D01*
X119471841Y-94400236D01*
X120142000Y-95070395D01*
X120812159Y-94400236D01*
X120764852Y-94176652D01*
X120636160Y-94118000D01*
X127493928Y-94118000D01*
X127506188Y-94242482D01*
X127542498Y-94362180D01*
X127601463Y-94472494D01*
X127680815Y-94569185D01*
X127777506Y-94648537D01*
X127887820Y-94707502D01*
X128007518Y-94743812D01*
X128132000Y-94756072D01*
X128746250Y-94753000D01*
X128905000Y-94594250D01*
X128905000Y-93345000D01*
X129159000Y-93345000D01*
X129159000Y-94594250D01*
X129317750Y-94753000D01*
X129932000Y-94756072D01*
X130056482Y-94743812D01*
X130176180Y-94707502D01*
X130286494Y-94648537D01*
X130383185Y-94569185D01*
X130462537Y-94472494D01*
X130521502Y-94362180D01*
X130557812Y-94242482D01*
X130570072Y-94118000D01*
X147559928Y-94118000D01*
X147572188Y-94242482D01*
X147608498Y-94362180D01*
X147667463Y-94472494D01*
X147746815Y-94569185D01*
X147843506Y-94648537D01*
X147953820Y-94707502D01*
X148073518Y-94743812D01*
X148198000Y-94756072D01*
X148812250Y-94753000D01*
X148971000Y-94594250D01*
X148971000Y-93345000D01*
X149225000Y-93345000D01*
X149225000Y-94594250D01*
X149383750Y-94753000D01*
X149998000Y-94756072D01*
X150122482Y-94743812D01*
X150242180Y-94707502D01*
X150352494Y-94648537D01*
X150449185Y-94569185D01*
X150528537Y-94472494D01*
X150587502Y-94362180D01*
X150623812Y-94242482D01*
X150636072Y-94118000D01*
X150633000Y-93503750D01*
X150474250Y-93345000D01*
X149225000Y-93345000D01*
X148971000Y-93345000D01*
X147721750Y-93345000D01*
X147563000Y-93503750D01*
X147559928Y-94118000D01*
X130570072Y-94118000D01*
X130567000Y-93503750D01*
X130408250Y-93345000D01*
X129159000Y-93345000D01*
X128905000Y-93345000D01*
X127655750Y-93345000D01*
X127497000Y-93503750D01*
X127493928Y-94118000D01*
X120636160Y-94118000D01*
X120543484Y-94075763D01*
X120306687Y-94020000D01*
X120063562Y-94011505D01*
X119823451Y-94050605D01*
X119595582Y-94135798D01*
X119519148Y-94176652D01*
X119471841Y-94400236D01*
X116484000Y-94400236D01*
X116484000Y-93340514D01*
X156907000Y-93340514D01*
X156907000Y-93603486D01*
X156958304Y-93861405D01*
X157058939Y-94104359D01*
X157205038Y-94323013D01*
X157390987Y-94508962D01*
X157609641Y-94655061D01*
X157852595Y-94755696D01*
X158110514Y-94807000D01*
X158373486Y-94807000D01*
X158631405Y-94755696D01*
X158874359Y-94655061D01*
X159093013Y-94508962D01*
X159278962Y-94323013D01*
X159425061Y-94104359D01*
X159525696Y-93861405D01*
X159577000Y-93603486D01*
X159577000Y-93340514D01*
X161987000Y-93340514D01*
X161987000Y-93603486D01*
X162038304Y-93861405D01*
X162138939Y-94104359D01*
X162285038Y-94323013D01*
X162470987Y-94508962D01*
X162689641Y-94655061D01*
X162932595Y-94755696D01*
X163190514Y-94807000D01*
X163453486Y-94807000D01*
X163711405Y-94755696D01*
X163954359Y-94655061D01*
X164173013Y-94508962D01*
X164358962Y-94323013D01*
X164505061Y-94104359D01*
X164605696Y-93861405D01*
X164657000Y-93603486D01*
X164657000Y-93340514D01*
X164605696Y-93082595D01*
X164505061Y-92839641D01*
X164358962Y-92620987D01*
X164173013Y-92435038D01*
X163954359Y-92288939D01*
X163711405Y-92188304D01*
X163453486Y-92137000D01*
X163190514Y-92137000D01*
X162932595Y-92188304D01*
X162689641Y-92288939D01*
X162470987Y-92435038D01*
X162285038Y-92620987D01*
X162138939Y-92839641D01*
X162038304Y-93082595D01*
X161987000Y-93340514D01*
X159577000Y-93340514D01*
X159525696Y-93082595D01*
X159425061Y-92839641D01*
X159278962Y-92620987D01*
X159093013Y-92435038D01*
X158874359Y-92288939D01*
X158631405Y-92188304D01*
X158373486Y-92137000D01*
X158110514Y-92137000D01*
X157852595Y-92188304D01*
X157609641Y-92288939D01*
X157390987Y-92435038D01*
X157205038Y-92620987D01*
X157058939Y-92839641D01*
X156958304Y-93082595D01*
X156907000Y-93340514D01*
X116484000Y-93340514D01*
X116484000Y-92318000D01*
X127493928Y-92318000D01*
X127497000Y-92932250D01*
X127655750Y-93091000D01*
X128905000Y-93091000D01*
X128905000Y-93071000D01*
X129159000Y-93071000D01*
X129159000Y-93091000D01*
X130408250Y-93091000D01*
X130567000Y-92932250D01*
X130570072Y-92318000D01*
X130557812Y-92193518D01*
X130521502Y-92073820D01*
X130462537Y-91963506D01*
X130383185Y-91866815D01*
X130286494Y-91787463D01*
X130176180Y-91728498D01*
X130157873Y-91722944D01*
X130224312Y-91656505D01*
X130296210Y-91548902D01*
X134924800Y-91548902D01*
X134924800Y-91839098D01*
X134981414Y-92123717D01*
X135092467Y-92391822D01*
X135253691Y-92633110D01*
X135458890Y-92838309D01*
X135700178Y-92999533D01*
X135968283Y-93110586D01*
X136252902Y-93167200D01*
X136543098Y-93167200D01*
X136827717Y-93110586D01*
X137095822Y-92999533D01*
X137337110Y-92838309D01*
X137542309Y-92633110D01*
X137668000Y-92445001D01*
X137793691Y-92633110D01*
X137998890Y-92838309D01*
X138240178Y-92999533D01*
X138508283Y-93110586D01*
X138792902Y-93167200D01*
X139083098Y-93167200D01*
X139367717Y-93110586D01*
X139635822Y-92999533D01*
X139877110Y-92838309D01*
X140082309Y-92633110D01*
X140208000Y-92445001D01*
X140333691Y-92633110D01*
X140538890Y-92838309D01*
X140780178Y-92999533D01*
X141048283Y-93110586D01*
X141332902Y-93167200D01*
X141623098Y-93167200D01*
X141907717Y-93110586D01*
X142175822Y-92999533D01*
X142417110Y-92838309D01*
X142622309Y-92633110D01*
X142783533Y-92391822D01*
X142814111Y-92318000D01*
X147559928Y-92318000D01*
X147563000Y-92932250D01*
X147721750Y-93091000D01*
X148971000Y-93091000D01*
X148971000Y-93071000D01*
X149225000Y-93071000D01*
X149225000Y-93091000D01*
X150474250Y-93091000D01*
X150633000Y-92932250D01*
X150636072Y-92318000D01*
X150623812Y-92193518D01*
X150587502Y-92073820D01*
X150528537Y-91963506D01*
X150449185Y-91866815D01*
X150352494Y-91787463D01*
X150242180Y-91728498D01*
X150223873Y-91722944D01*
X150290312Y-91656505D01*
X150458299Y-91405095D01*
X150574011Y-91125743D01*
X150633000Y-90829184D01*
X150633000Y-90526816D01*
X150574011Y-90230257D01*
X150458299Y-89950905D01*
X150290312Y-89699495D01*
X150076505Y-89485688D01*
X149825095Y-89317701D01*
X149545743Y-89201989D01*
X149249184Y-89143000D01*
X148946816Y-89143000D01*
X148650257Y-89201989D01*
X148370905Y-89317701D01*
X148119495Y-89485688D01*
X147905688Y-89699495D01*
X147737701Y-89950905D01*
X147621989Y-90230257D01*
X147563000Y-90526816D01*
X147563000Y-90829184D01*
X147621989Y-91125743D01*
X147737701Y-91405095D01*
X147905688Y-91656505D01*
X147972127Y-91722944D01*
X147953820Y-91728498D01*
X147843506Y-91787463D01*
X147746815Y-91866815D01*
X147667463Y-91963506D01*
X147608498Y-92073820D01*
X147572188Y-92193518D01*
X147559928Y-92318000D01*
X142814111Y-92318000D01*
X142894586Y-92123717D01*
X142951200Y-91839098D01*
X142951200Y-91548902D01*
X142894586Y-91264283D01*
X142783533Y-90996178D01*
X142622309Y-90754890D01*
X142417110Y-90549691D01*
X142175822Y-90388467D01*
X141907717Y-90277414D01*
X141623098Y-90220800D01*
X141332902Y-90220800D01*
X141048283Y-90277414D01*
X140780178Y-90388467D01*
X140538890Y-90549691D01*
X140333691Y-90754890D01*
X140208000Y-90942999D01*
X140082309Y-90754890D01*
X139877110Y-90549691D01*
X139635822Y-90388467D01*
X139367717Y-90277414D01*
X139083098Y-90220800D01*
X138792902Y-90220800D01*
X138508283Y-90277414D01*
X138240178Y-90388467D01*
X137998890Y-90549691D01*
X137793691Y-90754890D01*
X137668000Y-90942999D01*
X137542309Y-90754890D01*
X137337110Y-90549691D01*
X137095822Y-90388467D01*
X136827717Y-90277414D01*
X136543098Y-90220800D01*
X136252902Y-90220800D01*
X135968283Y-90277414D01*
X135700178Y-90388467D01*
X135458890Y-90549691D01*
X135253691Y-90754890D01*
X135092467Y-90996178D01*
X134981414Y-91264283D01*
X134924800Y-91548902D01*
X130296210Y-91548902D01*
X130392299Y-91405095D01*
X130508011Y-91125743D01*
X130567000Y-90829184D01*
X130567000Y-90526816D01*
X130508011Y-90230257D01*
X130392299Y-89950905D01*
X130224312Y-89699495D01*
X130010505Y-89485688D01*
X129759095Y-89317701D01*
X129479743Y-89201989D01*
X129183184Y-89143000D01*
X128880816Y-89143000D01*
X128584257Y-89201989D01*
X128304905Y-89317701D01*
X128053495Y-89485688D01*
X127839688Y-89699495D01*
X127671701Y-89950905D01*
X127555989Y-90230257D01*
X127497000Y-90526816D01*
X127497000Y-90829184D01*
X127555989Y-91125743D01*
X127671701Y-91405095D01*
X127839688Y-91656505D01*
X127906127Y-91722944D01*
X127887820Y-91728498D01*
X127777506Y-91787463D01*
X127680815Y-91866815D01*
X127601463Y-91963506D01*
X127542498Y-92073820D01*
X127506188Y-92193518D01*
X127493928Y-92318000D01*
X116484000Y-92318000D01*
X116484000Y-83399000D01*
X116796928Y-83399000D01*
X116796928Y-84749000D01*
X116809188Y-84873482D01*
X116845498Y-84993180D01*
X116904463Y-85103494D01*
X116983815Y-85200185D01*
X117070697Y-85271487D01*
X116949093Y-85453482D01*
X116850342Y-85691887D01*
X116800000Y-85944976D01*
X116800000Y-86203024D01*
X116850342Y-86456113D01*
X116949093Y-86694518D01*
X117092456Y-86909077D01*
X117274923Y-87091544D01*
X117489482Y-87234907D01*
X117727887Y-87333658D01*
X117980976Y-87384000D01*
X118239024Y-87384000D01*
X118492113Y-87333658D01*
X118730518Y-87234907D01*
X118945077Y-87091544D01*
X119116681Y-86919940D01*
X119238773Y-87052303D01*
X119446371Y-87203473D01*
X119679472Y-87311238D01*
X119780600Y-87341910D01*
X119983000Y-87218224D01*
X119983000Y-86201000D01*
X120237000Y-86201000D01*
X120237000Y-87218224D01*
X120439400Y-87341910D01*
X120540528Y-87311238D01*
X120773629Y-87203473D01*
X120981227Y-87052303D01*
X121155344Y-86863537D01*
X121289289Y-86644430D01*
X121377915Y-86403401D01*
X121255085Y-86201000D01*
X120237000Y-86201000D01*
X119983000Y-86201000D01*
X119963000Y-86201000D01*
X119963000Y-85947000D01*
X119983000Y-85947000D01*
X119983000Y-84201000D01*
X120237000Y-84201000D01*
X120237000Y-85947000D01*
X121255085Y-85947000D01*
X121377915Y-85744599D01*
X121289289Y-85503570D01*
X121155344Y-85284463D01*
X120981227Y-85095697D01*
X120951431Y-85074000D01*
X120981227Y-85052303D01*
X121155344Y-84863537D01*
X121289289Y-84644430D01*
X121377915Y-84403401D01*
X121255085Y-84201000D01*
X120237000Y-84201000D01*
X119983000Y-84201000D01*
X119963000Y-84201000D01*
X119963000Y-83947000D01*
X119983000Y-83947000D01*
X119983000Y-82929776D01*
X120237000Y-82929776D01*
X120237000Y-83947000D01*
X121255085Y-83947000D01*
X121377915Y-83744599D01*
X121289289Y-83503570D01*
X121155344Y-83284463D01*
X120981227Y-83095697D01*
X120773629Y-82944527D01*
X120540528Y-82836762D01*
X120439400Y-82806090D01*
X120237000Y-82929776D01*
X119983000Y-82929776D01*
X119780600Y-82806090D01*
X119679472Y-82836762D01*
X119446371Y-82944527D01*
X119313119Y-83041559D01*
X119236185Y-82947815D01*
X119139494Y-82868463D01*
X119029180Y-82809498D01*
X118909482Y-82773188D01*
X118785000Y-82760928D01*
X117435000Y-82760928D01*
X117310518Y-82773188D01*
X117190820Y-82809498D01*
X117080506Y-82868463D01*
X116983815Y-82947815D01*
X116904463Y-83044506D01*
X116845498Y-83154820D01*
X116809188Y-83274518D01*
X116796928Y-83399000D01*
X116484000Y-83399000D01*
X116484000Y-82448000D01*
X122530001Y-82448000D01*
X122530000Y-88103377D01*
G37*
%TD.AperFunction*%
%TD*%
M02*
