%TF.GenerationSoftware,KiCad,Pcbnew,(5.1.8)-1*%
%TF.CreationDate,2021-01-27T01:42:37+07:00*%
%TF.ProjectId,BD_power_supply,42445f70-6f77-4657-925f-737570706c79,1.0*%
%TF.SameCoordinates,Original*%
%TF.FileFunction,Legend,Top*%
%TF.FilePolarity,Positive*%
%FSLAX46Y46*%
G04 Gerber Fmt 4.6, Leading zero omitted, Abs format (unit mm)*
G04 Created by KiCad (PCBNEW (5.1.8)-1) date 2021-01-27 01:42:37*
%MOMM*%
%LPD*%
G01*
G04 APERTURE LIST*
%ADD10C,0.120000*%
%ADD11C,0.127000*%
%ADD12C,0.150000*%
%ADD13C,0.015000*%
G04 APERTURE END LIST*
D10*
%TO.C,U1*%
X135350000Y-100290000D02*
X135350000Y-110530000D01*
X130709000Y-100290000D02*
X130709000Y-110530000D01*
X135350000Y-100290000D02*
X130709000Y-100290000D01*
X135350000Y-110530000D02*
X130709000Y-110530000D01*
X133840000Y-100290000D02*
X133840000Y-110530000D01*
X135350000Y-103560000D02*
X133840000Y-103560000D01*
X135350000Y-107261000D02*
X133840000Y-107261000D01*
%TO.C,R2*%
X127620000Y-96108000D02*
X131460000Y-96108000D01*
X127620000Y-97948000D02*
X131460000Y-97948000D01*
%TO.C,J3*%
X165382000Y-103098000D02*
X165382000Y-112098000D01*
X165382000Y-112098000D02*
X156182000Y-112098000D01*
X156182000Y-112098000D02*
X156182000Y-97498000D01*
X156182000Y-97498000D02*
X158982000Y-97498000D01*
X162582000Y-97498000D02*
X165382000Y-97498000D01*
X165382000Y-97498000D02*
X165382000Y-99498000D01*
X155942000Y-98998000D02*
X155942000Y-97258000D01*
X155942000Y-97258000D02*
X157682000Y-97258000D01*
%TO.C,J2*%
X117050000Y-87134000D02*
X117050000Y-85074000D01*
X117050000Y-87134000D02*
X121170000Y-87134000D01*
X121170000Y-87134000D02*
X121170000Y-83014000D01*
X119110000Y-83014000D02*
X121170000Y-83014000D01*
X119110000Y-85074000D02*
X119110000Y-83014000D01*
X117050000Y-85074000D02*
X119110000Y-85074000D01*
X117050000Y-83014000D02*
X118110000Y-83014000D01*
X117050000Y-84074000D02*
X117050000Y-83014000D01*
%TO.C,J1*%
X162770000Y-87388000D02*
X162770000Y-85328000D01*
X162770000Y-87388000D02*
X166890000Y-87388000D01*
X166890000Y-87388000D02*
X166890000Y-83268000D01*
X164830000Y-83268000D02*
X166890000Y-83268000D01*
X164830000Y-85328000D02*
X164830000Y-83268000D01*
X162770000Y-85328000D02*
X164830000Y-85328000D01*
X162770000Y-83268000D02*
X163830000Y-83268000D01*
X162770000Y-84328000D02*
X162770000Y-83268000D01*
%TO.C,D6*%
X130111837Y-90906870D02*
G75*
G02*
X130112000Y-92988961I-1079837J-1041130D01*
G01*
X127952163Y-90906870D02*
G75*
G03*
X127952000Y-92988961I1079837J-1041130D01*
G01*
X130110608Y-90275665D02*
G75*
G02*
X130267516Y-93508000I-1078608J-1672335D01*
G01*
X127953392Y-90275665D02*
G75*
G03*
X127796484Y-93508000I1078608J-1672335D01*
G01*
X127796000Y-93508000D02*
X127952000Y-93508000D01*
X130112000Y-93508000D02*
X130268000Y-93508000D01*
%TO.C,D5*%
X150177837Y-90906870D02*
G75*
G02*
X150178000Y-92988961I-1079837J-1041130D01*
G01*
X148018163Y-90906870D02*
G75*
G03*
X148018000Y-92988961I1079837J-1041130D01*
G01*
X150176608Y-90275665D02*
G75*
G02*
X150333516Y-93508000I-1078608J-1672335D01*
G01*
X148019392Y-90275665D02*
G75*
G03*
X147862484Y-93508000I1078608J-1672335D01*
G01*
X147862000Y-93508000D02*
X148018000Y-93508000D01*
X150178000Y-93508000D02*
X150334000Y-93508000D01*
%TO.C,D4*%
X151692000Y-107622000D02*
X154632000Y-107622000D01*
X154632000Y-107622000D02*
X154632000Y-102182000D01*
X154632000Y-102182000D02*
X151692000Y-102182000D01*
X151692000Y-102182000D02*
X151692000Y-107622000D01*
X153162000Y-108642000D02*
X153162000Y-107622000D01*
X153162000Y-101162000D02*
X153162000Y-102182000D01*
X151692000Y-106722000D02*
X154632000Y-106722000D01*
X151692000Y-106602000D02*
X154632000Y-106602000D01*
X151692000Y-106842000D02*
X154632000Y-106842000D01*
%TO.C,D3*%
X149806000Y-101928000D02*
X146866000Y-101928000D01*
X146866000Y-101928000D02*
X146866000Y-107368000D01*
X146866000Y-107368000D02*
X149806000Y-107368000D01*
X149806000Y-107368000D02*
X149806000Y-101928000D01*
X148336000Y-100908000D02*
X148336000Y-101928000D01*
X148336000Y-108388000D02*
X148336000Y-107368000D01*
X149806000Y-102828000D02*
X146866000Y-102828000D01*
X149806000Y-102948000D02*
X146866000Y-102948000D01*
X149806000Y-102708000D02*
X146866000Y-102708000D01*
%TO.C,D2*%
X145234000Y-101928000D02*
X142294000Y-101928000D01*
X142294000Y-101928000D02*
X142294000Y-107368000D01*
X142294000Y-107368000D02*
X145234000Y-107368000D01*
X145234000Y-107368000D02*
X145234000Y-101928000D01*
X143764000Y-100908000D02*
X143764000Y-101928000D01*
X143764000Y-108388000D02*
X143764000Y-107368000D01*
X145234000Y-102828000D02*
X142294000Y-102828000D01*
X145234000Y-102948000D02*
X142294000Y-102948000D01*
X145234000Y-102708000D02*
X142294000Y-102708000D01*
%TO.C,D1*%
X137214000Y-107368000D02*
X140154000Y-107368000D01*
X140154000Y-107368000D02*
X140154000Y-101928000D01*
X140154000Y-101928000D02*
X137214000Y-101928000D01*
X137214000Y-101928000D02*
X137214000Y-107368000D01*
X138684000Y-108388000D02*
X138684000Y-107368000D01*
X138684000Y-100908000D02*
X138684000Y-101928000D01*
X137214000Y-106468000D02*
X140154000Y-106468000D01*
X137214000Y-106348000D02*
X140154000Y-106348000D01*
X137214000Y-106588000D02*
X140154000Y-106588000D01*
%TO.C,C1*%
X122262000Y-96250000D02*
G75*
G03*
X122262000Y-96250000I-2120000J0D01*
G01*
X118062000Y-96250000D02*
X122222000Y-96250000D01*
X118062000Y-96210000D02*
X122222000Y-96210000D01*
X118063000Y-96170000D02*
X122221000Y-96170000D01*
X118065000Y-96130000D02*
X122219000Y-96130000D01*
X118068000Y-96090000D02*
X122216000Y-96090000D01*
X118071000Y-96050000D02*
X119302000Y-96050000D01*
X120982000Y-96050000D02*
X122213000Y-96050000D01*
X118075000Y-96010000D02*
X119302000Y-96010000D01*
X120982000Y-96010000D02*
X122209000Y-96010000D01*
X118080000Y-95970000D02*
X119302000Y-95970000D01*
X120982000Y-95970000D02*
X122204000Y-95970000D01*
X118086000Y-95930000D02*
X119302000Y-95930000D01*
X120982000Y-95930000D02*
X122198000Y-95930000D01*
X118092000Y-95890000D02*
X119302000Y-95890000D01*
X120982000Y-95890000D02*
X122192000Y-95890000D01*
X118100000Y-95850000D02*
X119302000Y-95850000D01*
X120982000Y-95850000D02*
X122184000Y-95850000D01*
X118108000Y-95810000D02*
X119302000Y-95810000D01*
X120982000Y-95810000D02*
X122176000Y-95810000D01*
X118117000Y-95770000D02*
X119302000Y-95770000D01*
X120982000Y-95770000D02*
X122167000Y-95770000D01*
X118126000Y-95730000D02*
X119302000Y-95730000D01*
X120982000Y-95730000D02*
X122158000Y-95730000D01*
X118137000Y-95690000D02*
X119302000Y-95690000D01*
X120982000Y-95690000D02*
X122147000Y-95690000D01*
X118148000Y-95650000D02*
X119302000Y-95650000D01*
X120982000Y-95650000D02*
X122136000Y-95650000D01*
X118160000Y-95610000D02*
X119302000Y-95610000D01*
X120982000Y-95610000D02*
X122124000Y-95610000D01*
X118174000Y-95570000D02*
X119302000Y-95570000D01*
X120982000Y-95570000D02*
X122110000Y-95570000D01*
X118188000Y-95529000D02*
X119302000Y-95529000D01*
X120982000Y-95529000D02*
X122096000Y-95529000D01*
X118202000Y-95489000D02*
X119302000Y-95489000D01*
X120982000Y-95489000D02*
X122082000Y-95489000D01*
X118218000Y-95449000D02*
X119302000Y-95449000D01*
X120982000Y-95449000D02*
X122066000Y-95449000D01*
X118235000Y-95409000D02*
X119302000Y-95409000D01*
X120982000Y-95409000D02*
X122049000Y-95409000D01*
X118253000Y-95369000D02*
X119302000Y-95369000D01*
X120982000Y-95369000D02*
X122031000Y-95369000D01*
X118272000Y-95329000D02*
X119302000Y-95329000D01*
X120982000Y-95329000D02*
X122012000Y-95329000D01*
X118291000Y-95289000D02*
X119302000Y-95289000D01*
X120982000Y-95289000D02*
X121993000Y-95289000D01*
X118312000Y-95249000D02*
X119302000Y-95249000D01*
X120982000Y-95249000D02*
X121972000Y-95249000D01*
X118334000Y-95209000D02*
X119302000Y-95209000D01*
X120982000Y-95209000D02*
X121950000Y-95209000D01*
X118357000Y-95169000D02*
X119302000Y-95169000D01*
X120982000Y-95169000D02*
X121927000Y-95169000D01*
X118382000Y-95129000D02*
X119302000Y-95129000D01*
X120982000Y-95129000D02*
X121902000Y-95129000D01*
X118407000Y-95089000D02*
X119302000Y-95089000D01*
X120982000Y-95089000D02*
X121877000Y-95089000D01*
X118434000Y-95049000D02*
X119302000Y-95049000D01*
X120982000Y-95049000D02*
X121850000Y-95049000D01*
X118462000Y-95009000D02*
X119302000Y-95009000D01*
X120982000Y-95009000D02*
X121822000Y-95009000D01*
X118492000Y-94969000D02*
X119302000Y-94969000D01*
X120982000Y-94969000D02*
X121792000Y-94969000D01*
X118523000Y-94929000D02*
X119302000Y-94929000D01*
X120982000Y-94929000D02*
X121761000Y-94929000D01*
X118555000Y-94889000D02*
X119302000Y-94889000D01*
X120982000Y-94889000D02*
X121729000Y-94889000D01*
X118590000Y-94849000D02*
X119302000Y-94849000D01*
X120982000Y-94849000D02*
X121694000Y-94849000D01*
X118626000Y-94809000D02*
X119302000Y-94809000D01*
X120982000Y-94809000D02*
X121658000Y-94809000D01*
X118664000Y-94769000D02*
X119302000Y-94769000D01*
X120982000Y-94769000D02*
X121620000Y-94769000D01*
X118704000Y-94729000D02*
X119302000Y-94729000D01*
X120982000Y-94729000D02*
X121580000Y-94729000D01*
X118746000Y-94689000D02*
X119302000Y-94689000D01*
X120982000Y-94689000D02*
X121538000Y-94689000D01*
X118791000Y-94649000D02*
X119302000Y-94649000D01*
X120982000Y-94649000D02*
X121493000Y-94649000D01*
X118838000Y-94609000D02*
X119302000Y-94609000D01*
X120982000Y-94609000D02*
X121446000Y-94609000D01*
X118888000Y-94569000D02*
X119302000Y-94569000D01*
X120982000Y-94569000D02*
X121396000Y-94569000D01*
X118942000Y-94529000D02*
X119302000Y-94529000D01*
X120982000Y-94529000D02*
X121342000Y-94529000D01*
X119000000Y-94489000D02*
X119302000Y-94489000D01*
X120982000Y-94489000D02*
X121284000Y-94489000D01*
X119062000Y-94449000D02*
X119302000Y-94449000D01*
X120982000Y-94449000D02*
X121222000Y-94449000D01*
X119129000Y-94409000D02*
X121155000Y-94409000D01*
X119202000Y-94369000D02*
X121082000Y-94369000D01*
X119283000Y-94329000D02*
X121001000Y-94329000D01*
X119374000Y-94289000D02*
X120910000Y-94289000D01*
X119478000Y-94249000D02*
X120806000Y-94249000D01*
X119605000Y-94209000D02*
X120679000Y-94209000D01*
X119772000Y-94169000D02*
X120512000Y-94169000D01*
X118947000Y-98519801D02*
X118947000Y-98119801D01*
X118747000Y-98319801D02*
X119147000Y-98319801D01*
D11*
%TO.C,S1*%
X139446000Y-92710000D02*
X139446000Y-90678000D01*
X139700000Y-90678000D02*
X139700000Y-92710000D01*
X139954000Y-92710000D02*
X139954000Y-90678000D01*
X140208000Y-90678000D02*
X140208000Y-92710000D01*
X140462000Y-92710000D02*
X140462000Y-90678000D01*
X140716000Y-90678000D02*
X140716000Y-92710000D01*
X140970000Y-92710000D02*
X140970000Y-90678000D01*
X144780000Y-93218000D02*
X144780000Y-93726000D01*
X144272000Y-93218000D02*
X144780000Y-93218000D01*
X144272000Y-90170000D02*
X144272000Y-93218000D01*
X144780000Y-90170000D02*
X144272000Y-90170000D01*
X144780000Y-89662000D02*
X144780000Y-90170000D01*
X139192000Y-89662000D02*
X144780000Y-89662000D01*
X138938000Y-89916000D02*
X139192000Y-89662000D01*
X138684000Y-89662000D02*
X138938000Y-89916000D01*
X133096000Y-89662000D02*
X138684000Y-89662000D01*
X133096000Y-90170000D02*
X133096000Y-89662000D01*
X133604000Y-90170000D02*
X133096000Y-90170000D01*
X133604000Y-93218000D02*
X133604000Y-90170000D01*
X133096000Y-93218000D02*
X133604000Y-93218000D01*
X133096000Y-93726000D02*
X133096000Y-93218000D01*
X138684000Y-93726000D02*
X133096000Y-93726000D01*
X138938000Y-93472000D02*
X138684000Y-93726000D01*
X139192000Y-93726000D02*
X138938000Y-93472000D01*
X144780000Y-93726000D02*
X139192000Y-93726000D01*
D10*
%TO.C,C2*%
X119053000Y-109841646D02*
X120053000Y-109841646D01*
X119553000Y-110341646D02*
X119553000Y-109341646D01*
X121829000Y-99781000D02*
X123027000Y-99781000D01*
X121566000Y-99821000D02*
X123290000Y-99821000D01*
X121366000Y-99861000D02*
X123490000Y-99861000D01*
X121198000Y-99901000D02*
X123658000Y-99901000D01*
X121050000Y-99941000D02*
X123806000Y-99941000D01*
X120918000Y-99981000D02*
X123938000Y-99981000D01*
X120798000Y-100021000D02*
X124058000Y-100021000D01*
X120686000Y-100061000D02*
X124170000Y-100061000D01*
X120582000Y-100101000D02*
X124274000Y-100101000D01*
X120484000Y-100141000D02*
X124372000Y-100141000D01*
X120391000Y-100181000D02*
X124465000Y-100181000D01*
X120303000Y-100221000D02*
X124553000Y-100221000D01*
X120219000Y-100261000D02*
X124637000Y-100261000D01*
X120139000Y-100301000D02*
X124717000Y-100301000D01*
X120063000Y-100341000D02*
X124793000Y-100341000D01*
X119989000Y-100381000D02*
X124867000Y-100381000D01*
X119918000Y-100421000D02*
X124938000Y-100421000D01*
X119849000Y-100461000D02*
X125007000Y-100461000D01*
X119783000Y-100501000D02*
X125073000Y-100501000D01*
X119719000Y-100541000D02*
X125137000Y-100541000D01*
X119658000Y-100581000D02*
X125198000Y-100581000D01*
X119598000Y-100621000D02*
X125258000Y-100621000D01*
X119539000Y-100661000D02*
X125317000Y-100661000D01*
X119483000Y-100701000D02*
X125373000Y-100701000D01*
X119428000Y-100741000D02*
X125428000Y-100741000D01*
X119374000Y-100781000D02*
X125482000Y-100781000D01*
X119322000Y-100821000D02*
X125534000Y-100821000D01*
X119272000Y-100861000D02*
X125584000Y-100861000D01*
X119222000Y-100901000D02*
X125634000Y-100901000D01*
X119174000Y-100941000D02*
X125682000Y-100941000D01*
X119127000Y-100981000D02*
X125729000Y-100981000D01*
X119081000Y-101021000D02*
X125775000Y-101021000D01*
X119036000Y-101061000D02*
X125820000Y-101061000D01*
X118992000Y-101101000D02*
X125864000Y-101101000D01*
X123669000Y-101141000D02*
X125906000Y-101141000D01*
X118950000Y-101141000D02*
X121187000Y-101141000D01*
X123669000Y-101181000D02*
X125948000Y-101181000D01*
X118908000Y-101181000D02*
X121187000Y-101181000D01*
X123669000Y-101221000D02*
X125989000Y-101221000D01*
X118867000Y-101221000D02*
X121187000Y-101221000D01*
X123669000Y-101261000D02*
X126029000Y-101261000D01*
X118827000Y-101261000D02*
X121187000Y-101261000D01*
X123669000Y-101301000D02*
X126068000Y-101301000D01*
X118788000Y-101301000D02*
X121187000Y-101301000D01*
X123669000Y-101341000D02*
X126107000Y-101341000D01*
X118749000Y-101341000D02*
X121187000Y-101341000D01*
X123669000Y-101381000D02*
X126144000Y-101381000D01*
X118712000Y-101381000D02*
X121187000Y-101381000D01*
X123669000Y-101421000D02*
X126181000Y-101421000D01*
X118675000Y-101421000D02*
X121187000Y-101421000D01*
X123669000Y-101461000D02*
X126217000Y-101461000D01*
X118639000Y-101461000D02*
X121187000Y-101461000D01*
X123669000Y-101501000D02*
X126252000Y-101501000D01*
X118604000Y-101501000D02*
X121187000Y-101501000D01*
X123669000Y-101541000D02*
X126286000Y-101541000D01*
X118570000Y-101541000D02*
X121187000Y-101541000D01*
X123669000Y-101581000D02*
X126320000Y-101581000D01*
X118536000Y-101581000D02*
X121187000Y-101581000D01*
X123669000Y-101621000D02*
X126353000Y-101621000D01*
X118503000Y-101621000D02*
X121187000Y-101621000D01*
X123669000Y-101661000D02*
X126385000Y-101661000D01*
X118471000Y-101661000D02*
X121187000Y-101661000D01*
X123669000Y-101701000D02*
X126417000Y-101701000D01*
X118439000Y-101701000D02*
X121187000Y-101701000D01*
X123669000Y-101741000D02*
X126448000Y-101741000D01*
X118408000Y-101741000D02*
X121187000Y-101741000D01*
X123669000Y-101781000D02*
X126478000Y-101781000D01*
X118378000Y-101781000D02*
X121187000Y-101781000D01*
X123669000Y-101821000D02*
X126508000Y-101821000D01*
X118348000Y-101821000D02*
X121187000Y-101821000D01*
X123669000Y-101861000D02*
X126538000Y-101861000D01*
X118318000Y-101861000D02*
X121187000Y-101861000D01*
X123669000Y-101901000D02*
X126566000Y-101901000D01*
X118290000Y-101901000D02*
X121187000Y-101901000D01*
X123669000Y-101941000D02*
X126594000Y-101941000D01*
X118262000Y-101941000D02*
X121187000Y-101941000D01*
X123669000Y-101981000D02*
X126622000Y-101981000D01*
X118234000Y-101981000D02*
X121187000Y-101981000D01*
X123669000Y-102021000D02*
X126649000Y-102021000D01*
X118207000Y-102021000D02*
X121187000Y-102021000D01*
X123669000Y-102061000D02*
X126675000Y-102061000D01*
X118181000Y-102061000D02*
X121187000Y-102061000D01*
X123669000Y-102101000D02*
X126701000Y-102101000D01*
X118155000Y-102101000D02*
X121187000Y-102101000D01*
X123669000Y-102141000D02*
X126726000Y-102141000D01*
X118130000Y-102141000D02*
X121187000Y-102141000D01*
X123669000Y-102181000D02*
X126751000Y-102181000D01*
X118105000Y-102181000D02*
X121187000Y-102181000D01*
X123669000Y-102221000D02*
X126775000Y-102221000D01*
X118081000Y-102221000D02*
X121187000Y-102221000D01*
X123669000Y-102261000D02*
X126799000Y-102261000D01*
X118057000Y-102261000D02*
X121187000Y-102261000D01*
X123669000Y-102301000D02*
X126823000Y-102301000D01*
X118033000Y-102301000D02*
X121187000Y-102301000D01*
X123669000Y-102341000D02*
X126845000Y-102341000D01*
X118011000Y-102341000D02*
X121187000Y-102341000D01*
X123669000Y-102381000D02*
X126868000Y-102381000D01*
X117988000Y-102381000D02*
X121187000Y-102381000D01*
X123669000Y-102421000D02*
X126890000Y-102421000D01*
X117966000Y-102421000D02*
X121187000Y-102421000D01*
X123669000Y-102461000D02*
X126911000Y-102461000D01*
X117945000Y-102461000D02*
X121187000Y-102461000D01*
X123669000Y-102501000D02*
X126932000Y-102501000D01*
X117924000Y-102501000D02*
X121187000Y-102501000D01*
X123669000Y-102541000D02*
X126953000Y-102541000D01*
X117903000Y-102541000D02*
X121187000Y-102541000D01*
X123669000Y-102581000D02*
X126973000Y-102581000D01*
X117883000Y-102581000D02*
X121187000Y-102581000D01*
X123669000Y-102621000D02*
X126992000Y-102621000D01*
X117864000Y-102621000D02*
X121187000Y-102621000D01*
X123669000Y-102661000D02*
X127012000Y-102661000D01*
X117844000Y-102661000D02*
X121187000Y-102661000D01*
X123669000Y-102701000D02*
X127031000Y-102701000D01*
X117825000Y-102701000D02*
X121187000Y-102701000D01*
X123669000Y-102741000D02*
X127049000Y-102741000D01*
X117807000Y-102741000D02*
X121187000Y-102741000D01*
X123669000Y-102781000D02*
X127067000Y-102781000D01*
X117789000Y-102781000D02*
X121187000Y-102781000D01*
X123669000Y-102821000D02*
X127085000Y-102821000D01*
X117771000Y-102821000D02*
X121187000Y-102821000D01*
X123669000Y-102861000D02*
X127102000Y-102861000D01*
X117754000Y-102861000D02*
X121187000Y-102861000D01*
X123669000Y-102901000D02*
X127118000Y-102901000D01*
X117738000Y-102901000D02*
X121187000Y-102901000D01*
X123669000Y-102941000D02*
X127135000Y-102941000D01*
X117721000Y-102941000D02*
X121187000Y-102941000D01*
X123669000Y-102981000D02*
X127151000Y-102981000D01*
X117705000Y-102981000D02*
X121187000Y-102981000D01*
X123669000Y-103021000D02*
X127166000Y-103021000D01*
X117690000Y-103021000D02*
X121187000Y-103021000D01*
X123669000Y-103061000D02*
X127182000Y-103061000D01*
X117674000Y-103061000D02*
X121187000Y-103061000D01*
X123669000Y-103101000D02*
X127196000Y-103101000D01*
X117660000Y-103101000D02*
X121187000Y-103101000D01*
X123669000Y-103141000D02*
X127211000Y-103141000D01*
X117645000Y-103141000D02*
X121187000Y-103141000D01*
X123669000Y-103181000D02*
X127225000Y-103181000D01*
X117631000Y-103181000D02*
X121187000Y-103181000D01*
X123669000Y-103221000D02*
X127239000Y-103221000D01*
X117617000Y-103221000D02*
X121187000Y-103221000D01*
X123669000Y-103261000D02*
X127252000Y-103261000D01*
X117604000Y-103261000D02*
X121187000Y-103261000D01*
X123669000Y-103301000D02*
X127265000Y-103301000D01*
X117591000Y-103301000D02*
X121187000Y-103301000D01*
X123669000Y-103341000D02*
X127278000Y-103341000D01*
X117578000Y-103341000D02*
X121187000Y-103341000D01*
X123669000Y-103381000D02*
X127290000Y-103381000D01*
X117566000Y-103381000D02*
X121187000Y-103381000D01*
X123669000Y-103421000D02*
X127302000Y-103421000D01*
X117554000Y-103421000D02*
X121187000Y-103421000D01*
X123669000Y-103461000D02*
X127313000Y-103461000D01*
X117543000Y-103461000D02*
X121187000Y-103461000D01*
X123669000Y-103501000D02*
X127325000Y-103501000D01*
X117531000Y-103501000D02*
X121187000Y-103501000D01*
X123669000Y-103541000D02*
X127335000Y-103541000D01*
X117521000Y-103541000D02*
X121187000Y-103541000D01*
X123669000Y-103581000D02*
X127346000Y-103581000D01*
X117510000Y-103581000D02*
X121187000Y-103581000D01*
X117500000Y-103621000D02*
X127356000Y-103621000D01*
X117490000Y-103661000D02*
X127366000Y-103661000D01*
X117481000Y-103701000D02*
X127375000Y-103701000D01*
X117472000Y-103741000D02*
X127384000Y-103741000D01*
X117463000Y-103781000D02*
X127393000Y-103781000D01*
X117454000Y-103821000D02*
X127402000Y-103821000D01*
X117446000Y-103861000D02*
X127410000Y-103861000D01*
X117438000Y-103901000D02*
X127418000Y-103901000D01*
X117431000Y-103941000D02*
X127425000Y-103941000D01*
X117424000Y-103981000D02*
X127432000Y-103981000D01*
X117417000Y-104021000D02*
X127439000Y-104021000D01*
X117410000Y-104061000D02*
X127446000Y-104061000D01*
X117404000Y-104101000D02*
X127452000Y-104101000D01*
X117398000Y-104141000D02*
X127458000Y-104141000D01*
X117393000Y-104182000D02*
X127463000Y-104182000D01*
X117388000Y-104222000D02*
X127468000Y-104222000D01*
X117383000Y-104262000D02*
X127473000Y-104262000D01*
X117378000Y-104302000D02*
X127478000Y-104302000D01*
X117374000Y-104342000D02*
X127482000Y-104342000D01*
X117370000Y-104382000D02*
X127486000Y-104382000D01*
X117366000Y-104422000D02*
X127490000Y-104422000D01*
X117363000Y-104462000D02*
X127493000Y-104462000D01*
X117360000Y-104502000D02*
X127496000Y-104502000D01*
X117358000Y-104542000D02*
X127498000Y-104542000D01*
X117355000Y-104582000D02*
X127501000Y-104582000D01*
X117353000Y-104622000D02*
X127503000Y-104622000D01*
X117351000Y-104662000D02*
X127505000Y-104662000D01*
X117350000Y-104702000D02*
X127506000Y-104702000D01*
X117349000Y-104742000D02*
X127507000Y-104742000D01*
X117348000Y-104782000D02*
X127508000Y-104782000D01*
X117348000Y-104822000D02*
X127508000Y-104822000D01*
X117348000Y-104862000D02*
X127508000Y-104862000D01*
X127548000Y-104862000D02*
G75*
G03*
X127548000Y-104862000I-5120000J0D01*
G01*
%TO.C,R1*%
X162702000Y-92552000D02*
X158862000Y-92552000D01*
X162702000Y-94392000D02*
X158862000Y-94392000D01*
%TO.C,U1*%
D12*
X135802380Y-106171904D02*
X136611904Y-106171904D01*
X136707142Y-106124285D01*
X136754761Y-106076666D01*
X136802380Y-105981428D01*
X136802380Y-105790952D01*
X136754761Y-105695714D01*
X136707142Y-105648095D01*
X136611904Y-105600476D01*
X135802380Y-105600476D01*
X136802380Y-104600476D02*
X136802380Y-105171904D01*
X136802380Y-104886190D02*
X135802380Y-104886190D01*
X135945238Y-104981428D01*
X136040476Y-105076666D01*
X136088095Y-105171904D01*
%TO.C,R2*%
X129627333Y-97480380D02*
X129294000Y-97004190D01*
X129055904Y-97480380D02*
X129055904Y-96480380D01*
X129436857Y-96480380D01*
X129532095Y-96528000D01*
X129579714Y-96575619D01*
X129627333Y-96670857D01*
X129627333Y-96813714D01*
X129579714Y-96908952D01*
X129532095Y-96956571D01*
X129436857Y-97004190D01*
X129055904Y-97004190D01*
X130008285Y-96575619D02*
X130055904Y-96528000D01*
X130151142Y-96480380D01*
X130389238Y-96480380D01*
X130484476Y-96528000D01*
X130532095Y-96575619D01*
X130579714Y-96670857D01*
X130579714Y-96766095D01*
X130532095Y-96908952D01*
X129960666Y-97480380D01*
X130579714Y-97480380D01*
%TO.C,J3*%
X165984380Y-107081333D02*
X166698666Y-107081333D01*
X166841523Y-107128952D01*
X166936761Y-107224190D01*
X166984380Y-107367047D01*
X166984380Y-107462285D01*
X165984380Y-106700380D02*
X165984380Y-106081333D01*
X166365333Y-106414666D01*
X166365333Y-106271809D01*
X166412952Y-106176571D01*
X166460571Y-106128952D01*
X166555809Y-106081333D01*
X166793904Y-106081333D01*
X166889142Y-106128952D01*
X166936761Y-106176571D01*
X166984380Y-106271809D01*
X166984380Y-106557523D01*
X166936761Y-106652761D01*
X166889142Y-106700380D01*
%TO.C,J2*%
X115062380Y-85407333D02*
X115776666Y-85407333D01*
X115919523Y-85454952D01*
X116014761Y-85550190D01*
X116062380Y-85693047D01*
X116062380Y-85788285D01*
X115157619Y-84978761D02*
X115110000Y-84931142D01*
X115062380Y-84835904D01*
X115062380Y-84597809D01*
X115110000Y-84502571D01*
X115157619Y-84454952D01*
X115252857Y-84407333D01*
X115348095Y-84407333D01*
X115490952Y-84454952D01*
X116062380Y-85026380D01*
X116062380Y-84407333D01*
%TO.C,J1*%
X160782380Y-85661333D02*
X161496666Y-85661333D01*
X161639523Y-85708952D01*
X161734761Y-85804190D01*
X161782380Y-85947047D01*
X161782380Y-86042285D01*
X161782380Y-84661333D02*
X161782380Y-85232761D01*
X161782380Y-84947047D02*
X160782380Y-84947047D01*
X160925238Y-85042285D01*
X161020476Y-85137523D01*
X161068095Y-85232761D01*
%TO.C,D6*%
X126524380Y-92686095D02*
X125524380Y-92686095D01*
X125524380Y-92448000D01*
X125572000Y-92305142D01*
X125667238Y-92209904D01*
X125762476Y-92162285D01*
X125952952Y-92114666D01*
X126095809Y-92114666D01*
X126286285Y-92162285D01*
X126381523Y-92209904D01*
X126476761Y-92305142D01*
X126524380Y-92448000D01*
X126524380Y-92686095D01*
X125524380Y-91257523D02*
X125524380Y-91448000D01*
X125572000Y-91543238D01*
X125619619Y-91590857D01*
X125762476Y-91686095D01*
X125952952Y-91733714D01*
X126333904Y-91733714D01*
X126429142Y-91686095D01*
X126476761Y-91638476D01*
X126524380Y-91543238D01*
X126524380Y-91352761D01*
X126476761Y-91257523D01*
X126429142Y-91209904D01*
X126333904Y-91162285D01*
X126095809Y-91162285D01*
X126000571Y-91209904D01*
X125952952Y-91257523D01*
X125905333Y-91352761D01*
X125905333Y-91543238D01*
X125952952Y-91638476D01*
X126000571Y-91686095D01*
X126095809Y-91733714D01*
%TO.C,D5*%
X146590380Y-92686095D02*
X145590380Y-92686095D01*
X145590380Y-92448000D01*
X145638000Y-92305142D01*
X145733238Y-92209904D01*
X145828476Y-92162285D01*
X146018952Y-92114666D01*
X146161809Y-92114666D01*
X146352285Y-92162285D01*
X146447523Y-92209904D01*
X146542761Y-92305142D01*
X146590380Y-92448000D01*
X146590380Y-92686095D01*
X145590380Y-91209904D02*
X145590380Y-91686095D01*
X146066571Y-91733714D01*
X146018952Y-91686095D01*
X145971333Y-91590857D01*
X145971333Y-91352761D01*
X146018952Y-91257523D01*
X146066571Y-91209904D01*
X146161809Y-91162285D01*
X146399904Y-91162285D01*
X146495142Y-91209904D01*
X146542761Y-91257523D01*
X146590380Y-91352761D01*
X146590380Y-91590857D01*
X146542761Y-91686095D01*
X146495142Y-91733714D01*
%TO.C,D4*%
X153614380Y-105386095D02*
X152614380Y-105386095D01*
X152614380Y-105148000D01*
X152662000Y-105005142D01*
X152757238Y-104909904D01*
X152852476Y-104862285D01*
X153042952Y-104814666D01*
X153185809Y-104814666D01*
X153376285Y-104862285D01*
X153471523Y-104909904D01*
X153566761Y-105005142D01*
X153614380Y-105148000D01*
X153614380Y-105386095D01*
X152947714Y-103957523D02*
X153614380Y-103957523D01*
X152566761Y-104195619D02*
X153281047Y-104433714D01*
X153281047Y-103814666D01*
X151514380Y-110243904D02*
X150514380Y-110243904D01*
X151514380Y-109672476D02*
X150942952Y-110101047D01*
X150514380Y-109672476D02*
X151085809Y-110243904D01*
%TO.C,D3*%
X148788380Y-105894095D02*
X147788380Y-105894095D01*
X147788380Y-105656000D01*
X147836000Y-105513142D01*
X147931238Y-105417904D01*
X148026476Y-105370285D01*
X148216952Y-105322666D01*
X148359809Y-105322666D01*
X148550285Y-105370285D01*
X148645523Y-105417904D01*
X148740761Y-105513142D01*
X148788380Y-105656000D01*
X148788380Y-105894095D01*
X147788380Y-104989333D02*
X147788380Y-104370285D01*
X148169333Y-104703619D01*
X148169333Y-104560761D01*
X148216952Y-104465523D01*
X148264571Y-104417904D01*
X148359809Y-104370285D01*
X148597904Y-104370285D01*
X148693142Y-104417904D01*
X148740761Y-104465523D01*
X148788380Y-104560761D01*
X148788380Y-104846476D01*
X148740761Y-104941714D01*
X148693142Y-104989333D01*
X150888380Y-99829904D02*
X149888380Y-99829904D01*
X150888380Y-99258476D02*
X150316952Y-99687047D01*
X149888380Y-99258476D02*
X150459809Y-99829904D01*
%TO.C,D2*%
X144216380Y-105894095D02*
X143216380Y-105894095D01*
X143216380Y-105656000D01*
X143264000Y-105513142D01*
X143359238Y-105417904D01*
X143454476Y-105370285D01*
X143644952Y-105322666D01*
X143787809Y-105322666D01*
X143978285Y-105370285D01*
X144073523Y-105417904D01*
X144168761Y-105513142D01*
X144216380Y-105656000D01*
X144216380Y-105894095D01*
X143311619Y-104941714D02*
X143264000Y-104894095D01*
X143216380Y-104798857D01*
X143216380Y-104560761D01*
X143264000Y-104465523D01*
X143311619Y-104417904D01*
X143406857Y-104370285D01*
X143502095Y-104370285D01*
X143644952Y-104417904D01*
X144216380Y-104989333D01*
X144216380Y-104370285D01*
X146316380Y-99829904D02*
X145316380Y-99829904D01*
X146316380Y-99258476D02*
X145744952Y-99687047D01*
X145316380Y-99258476D02*
X145887809Y-99829904D01*
%TO.C,D1*%
X139136380Y-105132095D02*
X138136380Y-105132095D01*
X138136380Y-104894000D01*
X138184000Y-104751142D01*
X138279238Y-104655904D01*
X138374476Y-104608285D01*
X138564952Y-104560666D01*
X138707809Y-104560666D01*
X138898285Y-104608285D01*
X138993523Y-104655904D01*
X139088761Y-104751142D01*
X139136380Y-104894000D01*
X139136380Y-105132095D01*
X139136380Y-103608285D02*
X139136380Y-104179714D01*
X139136380Y-103894000D02*
X138136380Y-103894000D01*
X138279238Y-103989238D01*
X138374476Y-104084476D01*
X138422095Y-104179714D01*
X137036380Y-109989904D02*
X136036380Y-109989904D01*
X137036380Y-109418476D02*
X136464952Y-109847047D01*
X136036380Y-109418476D02*
X136607809Y-109989904D01*
%TO.C,C1*%
X117249142Y-96416666D02*
X117296761Y-96464285D01*
X117344380Y-96607142D01*
X117344380Y-96702380D01*
X117296761Y-96845238D01*
X117201523Y-96940476D01*
X117106285Y-96988095D01*
X116915809Y-97035714D01*
X116772952Y-97035714D01*
X116582476Y-96988095D01*
X116487238Y-96940476D01*
X116392000Y-96845238D01*
X116344380Y-96702380D01*
X116344380Y-96607142D01*
X116392000Y-96464285D01*
X116439619Y-96416666D01*
X117344380Y-95464285D02*
X117344380Y-96035714D01*
X117344380Y-95750000D02*
X116344380Y-95750000D01*
X116487238Y-95845238D01*
X116582476Y-95940476D01*
X116630095Y-96035714D01*
%TO.C,S1*%
D13*
X137795095Y-95273761D02*
X137937952Y-95321380D01*
X138176047Y-95321380D01*
X138271285Y-95273761D01*
X138318904Y-95226142D01*
X138366523Y-95130904D01*
X138366523Y-95035666D01*
X138318904Y-94940428D01*
X138271285Y-94892809D01*
X138176047Y-94845190D01*
X137985571Y-94797571D01*
X137890333Y-94749952D01*
X137842714Y-94702333D01*
X137795095Y-94607095D01*
X137795095Y-94511857D01*
X137842714Y-94416619D01*
X137890333Y-94369000D01*
X137985571Y-94321380D01*
X138223666Y-94321380D01*
X138366523Y-94369000D01*
X139318904Y-95321380D02*
X138747476Y-95321380D01*
X139033190Y-95321380D02*
X139033190Y-94321380D01*
X138937952Y-94464238D01*
X138842714Y-94559476D01*
X138747476Y-94607095D01*
%TO.C,C2*%
D12*
X116535142Y-105028666D02*
X116582761Y-105076285D01*
X116630380Y-105219142D01*
X116630380Y-105314380D01*
X116582761Y-105457238D01*
X116487523Y-105552476D01*
X116392285Y-105600095D01*
X116201809Y-105647714D01*
X116058952Y-105647714D01*
X115868476Y-105600095D01*
X115773238Y-105552476D01*
X115678000Y-105457238D01*
X115630380Y-105314380D01*
X115630380Y-105219142D01*
X115678000Y-105076285D01*
X115725619Y-105028666D01*
X115725619Y-104647714D02*
X115678000Y-104600095D01*
X115630380Y-104504857D01*
X115630380Y-104266761D01*
X115678000Y-104171523D01*
X115725619Y-104123904D01*
X115820857Y-104076285D01*
X115916095Y-104076285D01*
X116058952Y-104123904D01*
X116630380Y-104695333D01*
X116630380Y-104076285D01*
%TO.C,R1*%
X160615333Y-93924380D02*
X160282000Y-93448190D01*
X160043904Y-93924380D02*
X160043904Y-92924380D01*
X160424857Y-92924380D01*
X160520095Y-92972000D01*
X160567714Y-93019619D01*
X160615333Y-93114857D01*
X160615333Y-93257714D01*
X160567714Y-93352952D01*
X160520095Y-93400571D01*
X160424857Y-93448190D01*
X160043904Y-93448190D01*
X161567714Y-93924380D02*
X160996285Y-93924380D01*
X161282000Y-93924380D02*
X161282000Y-92924380D01*
X161186761Y-93067238D01*
X161091523Y-93162476D01*
X160996285Y-93210095D01*
%TD*%
M02*
