%TF.GenerationSoftware,KiCad,Pcbnew,(5.1.8)-1*%
%TF.CreationDate,2021-01-27T01:42:37+07:00*%
%TF.ProjectId,BD_power_supply,42445f70-6f77-4657-925f-737570706c79,1.0*%
%TF.SameCoordinates,Original*%
%TF.FileFunction,Soldermask,Top*%
%TF.FilePolarity,Negative*%
%FSLAX46Y46*%
G04 Gerber Fmt 4.6, Leading zero omitted, Abs format (unit mm)*
G04 Created by KiCad (PCBNEW (5.1.8)-1) date 2021-01-27 01:42:37*
%MOMM*%
%LPD*%
G01*
G04 APERTURE LIST*
%ADD10O,2.000000X1.905000*%
%ADD11R,2.000000X1.905000*%
%ADD12O,1.400000X1.400000*%
%ADD13C,1.400000*%
%ADD14C,2.600000*%
%ADD15R,2.600000X2.600000*%
%ADD16O,1.350000X1.350000*%
%ADD17R,1.350000X1.350000*%
%ADD18C,1.800000*%
%ADD19R,1.800000X1.800000*%
%ADD20O,2.200000X2.200000*%
%ADD21R,2.200000X2.200000*%
%ADD22C,1.200000*%
%ADD23R,1.200000X1.200000*%
%ADD24C,1.676400*%
%ADD25R,2.000000X2.000000*%
%ADD26C,2.000000*%
G04 APERTURE END LIST*
D10*
%TO.C,U1*%
X132080000Y-107950000D03*
X132080000Y-105410000D03*
D11*
X132080000Y-102870000D03*
%TD*%
D12*
%TO.C,R2*%
X132080000Y-97028000D03*
D13*
X127000000Y-97028000D03*
%TD*%
D14*
%TO.C,J3*%
X165482000Y-101298000D03*
X160782000Y-104298000D03*
D15*
X160782000Y-98298000D03*
%TD*%
D16*
%TO.C,J2*%
X120110000Y-86074000D03*
X120110000Y-84074000D03*
X118110000Y-86074000D03*
D17*
X118110000Y-84074000D03*
%TD*%
D16*
%TO.C,J1*%
X165830000Y-86328000D03*
X165830000Y-84328000D03*
X163830000Y-86328000D03*
D17*
X163830000Y-84328000D03*
%TD*%
D18*
%TO.C,D6*%
X129032000Y-90678000D03*
D19*
X129032000Y-93218000D03*
%TD*%
D18*
%TO.C,D5*%
X149098000Y-90678000D03*
D19*
X149098000Y-93218000D03*
%TD*%
D20*
%TO.C,D4*%
X153162000Y-99822000D03*
D21*
X153162000Y-109982000D03*
%TD*%
D20*
%TO.C,D3*%
X148336000Y-109728000D03*
D21*
X148336000Y-99568000D03*
%TD*%
D20*
%TO.C,D2*%
X143764000Y-109728000D03*
D21*
X143764000Y-99568000D03*
%TD*%
D20*
%TO.C,D1*%
X138684000Y-99568000D03*
D21*
X138684000Y-109728000D03*
%TD*%
D22*
%TO.C,C1*%
X120142000Y-95250000D03*
D23*
X120142000Y-97250000D03*
%TD*%
D24*
%TO.C,S1*%
X138938000Y-91694000D03*
X141478000Y-91694000D03*
X136398000Y-91694000D03*
%TD*%
D25*
%TO.C,C2*%
X122428000Y-107362000D03*
D26*
X122428000Y-102362000D03*
%TD*%
D13*
%TO.C,R1*%
X163322000Y-93472000D03*
D12*
X158242000Y-93472000D03*
%TD*%
M02*
