M48
; DRILL file {KiCad (5.1.8)-1} date 01/27/21 01:42:43
; FORMAT={-:-/ absolute / inch / decimal}
; #@! TF.CreationDate,2021-01-27T01:42:43+07:00
; #@! TF.GenerationSoftware,Kicad,Pcbnew,(5.1.8)-1
; #@! TF.FileFunction,Plated,1,2,PTH
FMAT,2
INCH
T1C0.0236
T2C0.0276
T3C0.0315
T4C0.0354
T5C0.0394
T6C0.0433
T7C0.0630
%
G90
G05
T1
X4.73Y-3.75
X4.73Y-3.8287
T2
X5.0Y-3.82
X5.2Y-3.82
X6.23Y-3.68
X6.43Y-3.68
T3
X6.45Y-3.32
X6.45Y-3.3987
X6.5287Y-3.32
X6.5287Y-3.3987
X4.65Y-3.31
X4.65Y-3.3887
X4.7287Y-3.31
X4.7287Y-3.3887
T4
X5.08Y-3.57
X5.08Y-3.67
X5.87Y-3.57
X5.87Y-3.67
X5.37Y-3.61
X5.47Y-3.61
X5.57Y-3.61
T5
X4.82Y-4.03
X4.82Y-4.2269
T6
X6.03Y-3.93
X6.03Y-4.33
X5.2Y-4.05
X5.2Y-4.15
X5.2Y-4.25
X5.66Y-3.92
X5.66Y-4.32
X5.84Y-3.92
X5.84Y-4.32
X5.46Y-3.92
X5.46Y-4.32
T7
X6.33Y-3.87
X6.33Y-4.1062
X6.515Y-3.9881
T0
M30
